M48
METRIC,LZ,000.000
;FILE_FORMAT=3:3
;TYPE=PLATED
;Layer: PTH_Through
;EasyEDA v6.5.3, 2022-04-20 15:58:44
;ff22b18d42d7425680d8988076959c4e,2865ae9118a24060a17af6d01c9bcc73,10
;Gerber Generator version 0.2
;Holesize 1 = 0.301 mm
T01C0.301
;Holesize 2 = 0.305 mm
T02C0.305
;Holesize 3 = 1.021 mm
T03C1.021
;Holesize 4 = 1.101 mm
T04C1.101
;Holesize 5 = 2.000 mm
T05C2.000
%
G05
G90
T01
X002056Y-014470
X002056Y-013470
X003056Y-014470
X003056Y-013470
X004056Y-014470
X004056Y-013470
X005056Y-014470
X005056Y-013470
T02
X001651Y-018669
X001016Y-019685
X001651Y-019431
X007493Y-018415
X007493Y-019050
X006477Y-018415
X006477Y-019050
X001016Y-018923
X001905Y-009398
X003302Y-009398
X000127Y-009398
X005461Y-009271
X006477Y-009271
X008001Y-009398
X-001016Y-009271
X-001905Y-008763
X016637Y-005207
X014859Y-020701
X015875Y-016764
X-002286Y-012573
X014351Y-017399
X015875Y-021590
X016764Y-016129
X016891Y-017399
X013716Y-021590
X014605Y-005207
X015875Y-010033
X-001905Y-015621
X009398Y-014351
X012827Y-020828
X011557Y-021590
X009779Y-021590
T03
X002413Y-021590
X004953Y-021590
X007493Y-021590
T04
X-001143Y-006477
X-001143Y-003937
X001397Y-006477
X001397Y-003937
X003937Y-006477
X003937Y-003937
X006477Y-006477
X006477Y-003937
X009017Y-006477
X009017Y-003937
X016256Y-007747
X016256Y-012700
T05
X018161Y-021209
X-004445Y-003683
X-004445Y-021336
X018161Y-003810
M30
