M48
METRIC,LZ,000.000
;FILE_FORMAT=3:3
;TYPE=PLATED
;Layer: PTH_Through_Via
;EasyEDA v6.5.42, 2024-04-26 14:21:03
;d11b9ede4b21459db86d56cd7f11aed4,2865ae9118a24060a17af6d01c9bcc73,10
;Gerber Generator version 0.2
;Holesize 1 = 0.301 mm
T01C0.301
;Holesize 2 = 0.305 mm
T02C0.305
%
G05
G90
T01
X002056Y-014470
X002056Y-013470
X003056Y-014470
X003056Y-013470
X004056Y-014470
X004056Y-013470
X005056Y-014470
X005056Y-013470
T02
X001397Y-018415
X001016Y-019685
X001905Y-018923
X007493Y-018415
X007493Y-019050
X006477Y-018415
X006477Y-019050
X001016Y-018923
X001905Y-009398
X003302Y-009398
X000127Y-009398
X005461Y-009271
X006477Y-009271
X008001Y-009398
X016129Y-006223
X014859Y-020701
X015875Y-016764
X-002286Y-012573
X014351Y-017399
X015875Y-021590
X016764Y-016129
X016891Y-017399
X013716Y-021590
X014097Y-005080
X015875Y-010033
X-001905Y-015621
X009398Y-013843
X012827Y-020828
X011811Y-021844
X-002032Y-008382
X-000508Y-008636
X009271Y-021717
X015875Y-003556
X-003302Y-016129
X013462Y-011303
X014351Y-006985
X009144Y-015240
X011938Y-016256
X010668Y-016256
X012319Y-017018
X011176Y-017018
X002032Y-019685
M30
