G04 Layer: TopSilkscreenLayer*
G04 EasyEDA v6.5.3, 2022-04-20 15:58:44*
G04 ff22b18d42d7425680d8988076959c4e,2865ae9118a24060a17af6d01c9bcc73,10*
G04 Gerber Generator version 0.2*
G04 Scale: 100 percent, Rotated: No, Reflected: No *
G04 Dimensions in millimeters *
G04 leading zeros omitted , absolute positions ,4 integer and 5 decimal *
%FSLAX45Y45*%
%MOMM*%

%ADD10C,0.2540*%
%ADD27C,0.2030*%
%ADD28C,0.1524*%
%ADD29C,0.3000*%
%ADD30C,0.2032*%

%LPD*%
D30*
X1135888Y-381000D02*
G01*
X1202690Y-381000D01*
X1135888Y-381000D02*
G01*
X1135888Y-339597D01*
X1167638Y-381000D02*
G01*
X1167638Y-355600D01*
X1202690Y-381000D02*
G01*
X1202690Y-339597D01*
X1135888Y-318515D02*
G01*
X1202690Y-318515D01*
X1135888Y-318515D02*
G01*
X1202690Y-274065D01*
X1135888Y-274065D02*
G01*
X1202690Y-274065D01*
X1691893Y-1398523D02*
G01*
X1691891Y-1480565D01*
X1651000Y-1439418D02*
G01*
X1732788Y-1439418D01*
X1718818Y-660400D02*
G01*
X1718818Y-578612D01*
X1392427Y-1099312D02*
G01*
X1395984Y-1110234D01*
X1403350Y-1114044D01*
X1410715Y-1114044D01*
X1417827Y-1110234D01*
X1421638Y-1103121D01*
X1425193Y-1088389D01*
X1428750Y-1077721D01*
X1436115Y-1070355D01*
X1443481Y-1066800D01*
X1454404Y-1066800D01*
X1461515Y-1070355D01*
X1465325Y-1073912D01*
X1468881Y-1084834D01*
X1468881Y-1099312D01*
X1465325Y-1110234D01*
X1461515Y-1114044D01*
X1454404Y-1117600D01*
X1443481Y-1117600D01*
X1436115Y-1114044D01*
X1428750Y-1106678D01*
X1425193Y-1095755D01*
X1421638Y-1081278D01*
X1417827Y-1073912D01*
X1410715Y-1070355D01*
X1403350Y-1070355D01*
X1395984Y-1073912D01*
X1392427Y-1084834D01*
X1392427Y-1099312D01*
X1436115Y-1042670D02*
G01*
X1436115Y-977137D01*
X1392427Y-945895D02*
G01*
X1392427Y-906018D01*
X1421638Y-927862D01*
X1421638Y-916939D01*
X1425193Y-909573D01*
X1428750Y-906018D01*
X1439672Y-902207D01*
X1447038Y-902207D01*
X1457959Y-906018D01*
X1465325Y-913129D01*
X1468881Y-924052D01*
X1468881Y-934973D01*
X1465325Y-945895D01*
X1461515Y-949705D01*
X1454404Y-953262D01*
X1392427Y-834644D02*
G01*
X1392427Y-870965D01*
X1425193Y-874776D01*
X1421638Y-870965D01*
X1417827Y-860044D01*
X1417827Y-849121D01*
X1421638Y-838454D01*
X1428750Y-831087D01*
X1439672Y-827531D01*
X1447038Y-827531D01*
X1457959Y-831087D01*
X1465325Y-838454D01*
X1468881Y-849121D01*
X1468881Y-860044D01*
X1465325Y-870965D01*
X1461515Y-874776D01*
X1454404Y-878331D01*
X1392427Y-803402D02*
G01*
X1468881Y-774445D01*
X1392427Y-745236D02*
G01*
X1468881Y-774445D01*
X-336550Y-1803400D02*
G01*
X-343915Y-1810512D01*
X-347471Y-1821434D01*
X-347471Y-1835912D01*
X-343915Y-1846834D01*
X-336550Y-1854200D01*
X-329184Y-1854200D01*
X-322071Y-1850644D01*
X-318262Y-1846834D01*
X-314705Y-1839721D01*
X-307339Y-1817878D01*
X-303784Y-1810512D01*
X-300228Y-1806955D01*
X-292862Y-1803400D01*
X-281939Y-1803400D01*
X-274573Y-1810512D01*
X-271018Y-1821434D01*
X-271018Y-1835912D01*
X-274573Y-1846834D01*
X-281939Y-1854200D01*
X-347471Y-1779270D02*
G01*
X-343915Y-1775713D01*
X-347471Y-1771904D01*
X-351028Y-1775713D01*
X-347471Y-1779270D01*
X-322071Y-1775713D02*
G01*
X-271018Y-1775713D01*
X-322071Y-1748028D02*
G01*
X-271018Y-1748028D01*
X-307339Y-1748028D02*
G01*
X-318262Y-1737105D01*
X-322071Y-1729739D01*
X-322071Y-1718818D01*
X-318262Y-1711705D01*
X-307339Y-1707895D01*
X-271018Y-1707895D01*
X-307339Y-1707895D02*
G01*
X-318262Y-1697228D01*
X-322071Y-1689862D01*
X-322071Y-1678939D01*
X-318262Y-1671573D01*
X-307339Y-1668018D01*
X-271018Y-1668018D01*
X-322071Y-1644142D02*
G01*
X-245618Y-1644142D01*
X-311150Y-1644142D02*
G01*
X-318262Y-1636776D01*
X-322071Y-1629410D01*
X-322071Y-1618487D01*
X-318262Y-1611376D01*
X-311150Y-1604010D01*
X-300228Y-1600454D01*
X-292862Y-1600454D01*
X-281939Y-1604010D01*
X-274573Y-1611376D01*
X-271018Y-1618487D01*
X-271018Y-1629410D01*
X-274573Y-1636776D01*
X-281939Y-1644142D01*
X-347471Y-1576323D02*
G01*
X-271018Y-1576323D01*
X-300228Y-1552447D02*
G01*
X-300228Y-1508760D01*
X-307339Y-1508760D01*
X-314705Y-1512315D01*
X-318262Y-1516126D01*
X-322071Y-1523237D01*
X-322071Y-1534160D01*
X-318262Y-1541526D01*
X-311150Y-1548637D01*
X-300228Y-1552447D01*
X-292862Y-1552447D01*
X-281939Y-1548637D01*
X-274573Y-1541526D01*
X-271018Y-1534160D01*
X-271018Y-1523237D01*
X-274573Y-1516126D01*
X-281939Y-1508760D01*
X-347471Y-1484629D02*
G01*
X-271018Y-1484629D01*
X-347471Y-1484629D02*
G01*
X-347471Y-1437386D01*
X-311150Y-1484629D02*
G01*
X-311150Y-1455673D01*
X-347471Y-1391665D02*
G01*
X-343915Y-1399031D01*
X-336550Y-1406144D01*
X-329184Y-1409954D01*
X-318262Y-1413510D01*
X-300228Y-1413510D01*
X-289305Y-1409954D01*
X-281939Y-1406144D01*
X-274573Y-1399031D01*
X-271018Y-1391665D01*
X-271018Y-1377187D01*
X-274573Y-1369821D01*
X-281939Y-1362455D01*
X-289305Y-1358900D01*
X-300228Y-1355344D01*
X-318262Y-1355344D01*
X-329184Y-1358900D01*
X-336550Y-1362455D01*
X-343915Y-1369821D01*
X-347471Y-1377187D01*
X-347471Y-1391665D01*
X-329184Y-1276857D02*
G01*
X-336550Y-1280413D01*
X-343915Y-1287779D01*
X-347471Y-1294892D01*
X-347471Y-1309370D01*
X-343915Y-1316736D01*
X-336550Y-1324102D01*
X-329184Y-1327657D01*
X-318262Y-1331213D01*
X-300228Y-1331213D01*
X-289305Y-1327657D01*
X-281939Y-1324102D01*
X-274573Y-1316736D01*
X-271018Y-1309370D01*
X-271018Y-1294892D01*
X-274573Y-1287779D01*
X-281939Y-1280413D01*
X-289305Y-1276857D01*
X-213360Y-1511300D02*
G01*
X-168910Y-1492250D01*
X-213360Y-1473200D02*
G01*
X-168910Y-1492250D01*
X-223012Y-1452118D02*
G01*
X-226313Y-1445768D01*
X-235712Y-1436115D01*
X-168910Y-1436115D01*
X-184912Y-1411986D02*
G01*
X-181610Y-1415287D01*
X-178562Y-1411986D01*
X-181610Y-1408937D01*
X-184912Y-1411986D01*
X-235712Y-1368805D02*
G01*
X-232663Y-1378204D01*
X-223012Y-1384554D01*
X-207010Y-1387855D01*
X-197612Y-1387855D01*
X-181610Y-1384554D01*
X-172212Y-1378204D01*
X-168910Y-1368805D01*
X-168910Y-1362455D01*
X-172212Y-1352804D01*
X-181610Y-1346454D01*
X-197612Y-1343405D01*
X-207010Y-1343405D01*
X-223012Y-1346454D01*
X-232663Y-1352804D01*
X-235712Y-1362455D01*
X-235712Y-1368805D01*
X215900Y-1935987D02*
G01*
X215900Y-2002789D01*
X215900Y-1935987D02*
G01*
X241300Y-2002789D01*
X266700Y-1935987D02*
G01*
X241300Y-2002789D01*
X266700Y-1935987D02*
G01*
X266700Y-2002789D01*
X287781Y-1948687D02*
G01*
X294131Y-1945386D01*
X303784Y-1935987D01*
X303784Y-2002789D01*
X444500Y-1935987D02*
G01*
X444500Y-2002789D01*
X444500Y-1935987D02*
G01*
X469900Y-2002789D01*
X495300Y-1935987D02*
G01*
X469900Y-2002789D01*
X495300Y-1935987D02*
G01*
X495300Y-2002789D01*
X519684Y-1951989D02*
G01*
X519684Y-1948687D01*
X522731Y-1942337D01*
X526034Y-1939036D01*
X532384Y-1935987D01*
X545084Y-1935987D01*
X551434Y-1939036D01*
X554481Y-1942337D01*
X557784Y-1948687D01*
X557784Y-1955037D01*
X554481Y-1961387D01*
X548131Y-1971039D01*
X516381Y-2002789D01*
X560831Y-2002789D01*
X685698Y-1935886D02*
G01*
X685698Y-2002688D01*
X685698Y-1935886D02*
G01*
X711352Y-2002688D01*
X736752Y-1935886D02*
G01*
X711352Y-2002688D01*
X736752Y-1935886D02*
G01*
X736752Y-2002688D01*
X764184Y-1935886D02*
G01*
X798982Y-1935886D01*
X779932Y-1961286D01*
X789584Y-1961286D01*
X795934Y-1964588D01*
X798982Y-1967890D01*
X802284Y-1977288D01*
X802284Y-1983638D01*
X798982Y-1993290D01*
X792632Y-1999640D01*
X783234Y-2002688D01*
X773582Y-2002688D01*
X764184Y-1999640D01*
X760882Y-1996338D01*
X757580Y-1989988D01*
X-235712Y-1765300D02*
G01*
X-168910Y-1765300D01*
X-235712Y-1765300D02*
G01*
X-168910Y-1739900D01*
X-235712Y-1714500D02*
G01*
X-168910Y-1739900D01*
X-235712Y-1714500D02*
G01*
X-168910Y-1714500D01*
X-235712Y-1693418D02*
G01*
X-232663Y-1690115D01*
X-235712Y-1687068D01*
X-239013Y-1690115D01*
X-235712Y-1693418D01*
X-213360Y-1690115D02*
G01*
X-168910Y-1690115D01*
X-213360Y-1665986D02*
G01*
X-168910Y-1665986D01*
X-200660Y-1665986D02*
G01*
X-210312Y-1656587D01*
X-213360Y-1650237D01*
X-213360Y-1640586D01*
X-210312Y-1634236D01*
X-200660Y-1630934D01*
X-168910Y-1630934D01*
X-235712Y-1610105D02*
G01*
X-232663Y-1606804D01*
X-235712Y-1603755D01*
X-239013Y-1606804D01*
X-235712Y-1610105D01*
X-213360Y-1606804D02*
G01*
X-168910Y-1606804D01*
X1491488Y-381000D02*
G01*
X1558290Y-381000D01*
X1491488Y-359918D02*
G01*
X1558290Y-359918D01*
X1491488Y-359918D02*
G01*
X1558290Y-315468D01*
X1491488Y-315468D02*
G01*
X1558290Y-315468D01*
X1504188Y-294386D02*
G01*
X1500886Y-288036D01*
X1491488Y-278637D01*
X1558290Y-278637D01*
X1364488Y-406400D02*
G01*
X1431290Y-406400D01*
X1364488Y-385318D02*
G01*
X1431290Y-385318D01*
X1364488Y-385318D02*
G01*
X1431290Y-340868D01*
X1364488Y-340868D02*
G01*
X1431290Y-340868D01*
X1380490Y-316737D02*
G01*
X1377188Y-316737D01*
X1370838Y-313436D01*
X1367536Y-310387D01*
X1364488Y-304037D01*
X1364488Y-291337D01*
X1367536Y-284734D01*
X1370838Y-281686D01*
X1377188Y-278384D01*
X1383538Y-278384D01*
X1389888Y-281686D01*
X1399540Y-288036D01*
X1431290Y-319786D01*
X1431290Y-275336D01*
X1250188Y-406400D02*
G01*
X1316990Y-406400D01*
X1250188Y-385318D02*
G01*
X1316990Y-385318D01*
X1250188Y-385318D02*
G01*
X1316990Y-340868D01*
X1250188Y-340868D02*
G01*
X1316990Y-340868D01*
X1250188Y-313436D02*
G01*
X1250188Y-278384D01*
X1275588Y-297687D01*
X1275588Y-288036D01*
X1278890Y-281686D01*
X1281938Y-278384D01*
X1291590Y-275336D01*
X1297940Y-275336D01*
X1307338Y-278384D01*
X1313688Y-284734D01*
X1316990Y-294386D01*
X1316990Y-304037D01*
X1313688Y-313436D01*
X1310640Y-316737D01*
X1304290Y-319786D01*
X831850Y-818387D02*
G01*
X866902Y-818387D01*
X847852Y-843787D01*
X857250Y-843787D01*
X863600Y-847089D01*
X866902Y-850137D01*
X869950Y-859789D01*
X869950Y-866139D01*
X866902Y-875537D01*
X860552Y-881887D01*
X850900Y-885189D01*
X841502Y-885189D01*
X831850Y-881887D01*
X828802Y-878839D01*
X825500Y-872489D01*
X891031Y-818387D02*
G01*
X916431Y-885189D01*
X941831Y-818387D02*
G01*
X916431Y-885189D01*
X969263Y-818387D02*
G01*
X1004315Y-818387D01*
X985265Y-843787D01*
X994663Y-843787D01*
X1001013Y-847089D01*
X1004315Y-850137D01*
X1007618Y-859789D01*
X1007618Y-866139D01*
X1004315Y-875537D01*
X997965Y-881887D01*
X988313Y-885189D01*
X978915Y-885189D01*
X969263Y-881887D01*
X966215Y-878839D01*
X962913Y-872489D01*
X1621790Y-409447D02*
G01*
X1615186Y-412750D01*
X1608836Y-419100D01*
X1605788Y-425450D01*
X1605788Y-438150D01*
X1608836Y-444500D01*
X1615186Y-450850D01*
X1621790Y-453897D01*
X1631188Y-457200D01*
X1647190Y-457200D01*
X1656588Y-453897D01*
X1662938Y-450850D01*
X1669288Y-444500D01*
X1672590Y-438150D01*
X1672590Y-425450D01*
X1669288Y-419100D01*
X1662938Y-412750D01*
X1656588Y-409447D01*
X1647190Y-409447D01*
X1647190Y-425450D02*
G01*
X1647190Y-409447D01*
X1605788Y-388365D02*
G01*
X1672590Y-388365D01*
X1605788Y-388365D02*
G01*
X1672590Y-343915D01*
X1605788Y-343915D02*
G01*
X1672590Y-343915D01*
X1605788Y-322834D02*
G01*
X1672590Y-322834D01*
X1605788Y-322834D02*
G01*
X1605788Y-300736D01*
X1608836Y-291084D01*
X1615186Y-284734D01*
X1621790Y-281686D01*
X1631188Y-278384D01*
X1647190Y-278384D01*
X1656588Y-281686D01*
X1662938Y-284734D01*
X1669288Y-291084D01*
X1672590Y-300736D01*
X1672590Y-322834D01*
X-152400Y-828039D02*
G01*
X-152400Y-872489D01*
X-152400Y-840739D02*
G01*
X-142747Y-831087D01*
X-136397Y-828039D01*
X-127000Y-828039D01*
X-120650Y-831087D01*
X-117347Y-840739D01*
X-117347Y-872489D01*
X-96520Y-805687D02*
G01*
X-96520Y-872489D01*
X-96520Y-805687D02*
G01*
X-55118Y-805687D01*
X-96520Y-837437D02*
G01*
X-70865Y-837437D01*
X-11684Y-805687D02*
G01*
X-11684Y-872489D01*
X-34036Y-805687D02*
G01*
X10413Y-805687D01*
X63500Y-828039D02*
G01*
X63500Y-872489D01*
X63500Y-840739D02*
G01*
X73152Y-831087D01*
X79502Y-828039D01*
X88900Y-828039D01*
X95250Y-831087D01*
X98552Y-840739D01*
X98552Y-872489D01*
X164084Y-815086D02*
G01*
X157734Y-808736D01*
X148081Y-805687D01*
X135381Y-805687D01*
X125984Y-808736D01*
X119379Y-815086D01*
X119379Y-821689D01*
X122681Y-828039D01*
X125984Y-831087D01*
X132334Y-834389D01*
X151384Y-840739D01*
X157734Y-843787D01*
X160781Y-847089D01*
X164084Y-853439D01*
X164084Y-862837D01*
X157734Y-869187D01*
X148081Y-872489D01*
X135381Y-872489D01*
X125984Y-869187D01*
X119379Y-862837D01*
X185165Y-805687D02*
G01*
X185165Y-872489D01*
X185165Y-805687D02*
G01*
X213613Y-805687D01*
X223265Y-808736D01*
X226313Y-812037D01*
X229615Y-818387D01*
X229615Y-828039D01*
X226313Y-834389D01*
X223265Y-837437D01*
X213613Y-840739D01*
X185165Y-840739D01*
X304800Y-840739D02*
G01*
X304800Y-885189D01*
X304800Y-853439D02*
G01*
X314452Y-843787D01*
X320802Y-840739D01*
X330200Y-840739D01*
X336550Y-843787D01*
X339852Y-853439D01*
X339852Y-885189D01*
X360679Y-818387D02*
G01*
X360679Y-885189D01*
X360679Y-818387D02*
G01*
X389381Y-818387D01*
X399034Y-821436D01*
X402081Y-824737D01*
X405384Y-831087D01*
X405384Y-837437D01*
X402081Y-843787D01*
X399034Y-847089D01*
X389381Y-850137D01*
X360679Y-850137D01*
X383031Y-850137D02*
G01*
X405384Y-885189D01*
X448563Y-818387D02*
G01*
X448563Y-885189D01*
X426465Y-818387D02*
G01*
X470915Y-818387D01*
X606552Y-821689D02*
G01*
X603250Y-815086D01*
X596900Y-808736D01*
X590550Y-805687D01*
X577850Y-805687D01*
X571500Y-808736D01*
X565150Y-815086D01*
X562102Y-821689D01*
X558800Y-831087D01*
X558800Y-847089D01*
X562102Y-856487D01*
X565150Y-862837D01*
X571500Y-869187D01*
X577850Y-872489D01*
X590550Y-872489D01*
X596900Y-869187D01*
X603250Y-862837D01*
X606552Y-856487D01*
X606552Y-847089D01*
X590550Y-847089D02*
G01*
X606552Y-847089D01*
X627634Y-805687D02*
G01*
X627634Y-872489D01*
X627634Y-805687D02*
G01*
X672084Y-872489D01*
X672084Y-805687D02*
G01*
X672084Y-872489D01*
X693165Y-805687D02*
G01*
X693165Y-872489D01*
X693165Y-805687D02*
G01*
X715263Y-805687D01*
X724915Y-808736D01*
X731265Y-815086D01*
X734313Y-821689D01*
X737615Y-831087D01*
X737615Y-847089D01*
X734313Y-856487D01*
X731265Y-862837D01*
X724915Y-869187D01*
X715263Y-872489D01*
X693165Y-872489D01*
G36*
X1526387Y-2021484D02*
G01*
X1526387Y-2041296D01*
X1605584Y-2041296D01*
X1605584Y-2021484D01*
G37*
G36*
X985215Y-2021484D02*
G01*
X985215Y-2041296D01*
X1064412Y-2041296D01*
X1064412Y-2021484D01*
G37*
G36*
X1014882Y-1965401D02*
G01*
X1014882Y-2097379D01*
X1034694Y-2097379D01*
X1034694Y-1965401D01*
G37*
D10*
X1247140Y-1510029D02*
G01*
X1419859Y-1510029D01*
X1419859Y-1510029D02*
G01*
X1419859Y-1362710D01*
X1247140Y-1510029D02*
G01*
X1247140Y-1362710D01*
X1419859Y-1304289D02*
G01*
X1419859Y-1187450D01*
X1247140Y-1301750D02*
G01*
X1247140Y-1187450D01*
X1247140Y-1187450D02*
G01*
X1282700Y-1151889D01*
X1384300Y-1151889D01*
X1419859Y-1187450D01*
D27*
X1292859Y-1341120D02*
G01*
X1371600Y-1341120D01*
X1332704Y-1341120D02*
G01*
X1332704Y-1323583D01*
D28*
X1209060Y-1316278D02*
G01*
X1209060Y-1220391D01*
X1076939Y-1220391D01*
X1076939Y-1316278D01*
X1209060Y-1401521D02*
G01*
X1209060Y-1497408D01*
X1076939Y-1497408D01*
X1076939Y-1401521D01*
X1630961Y-1953526D02*
G01*
X1632965Y-2217165D01*
X1097279Y-2217165D01*
X957834Y-2077720D01*
X959170Y-1948179D01*
X1632348Y-1808830D02*
G01*
X1633016Y-1541983D01*
X1097396Y-1541983D01*
X957783Y-1681596D01*
X957783Y-1811020D01*
D10*
X1054100Y-774700D02*
G01*
X-266700Y-774700D01*
X-266700Y-266700D01*
X1054100Y-266700D01*
X1054100Y-774700D01*
X1054100Y-520700D02*
G01*
X774700Y-520700D01*
X774700Y-266700D01*
X1054100Y-266700D01*
X1054100Y-520700D01*
D28*
X1176578Y-505439D02*
G01*
X1080691Y-505439D01*
X1080691Y-637560D01*
X1176578Y-637560D01*
X1261821Y-505439D02*
G01*
X1357708Y-505439D01*
X1357708Y-637560D01*
X1261821Y-637560D01*
X1176578Y-695939D02*
G01*
X1080691Y-695939D01*
X1080691Y-828060D01*
X1176578Y-828060D01*
X1261821Y-695939D02*
G01*
X1357708Y-695939D01*
X1357708Y-828060D01*
X1261821Y-828060D01*
X1176578Y-886439D02*
G01*
X1080691Y-886439D01*
X1080691Y-1018560D01*
X1176578Y-1018560D01*
X1261821Y-886439D02*
G01*
X1357708Y-886439D01*
X1357708Y-1018560D01*
X1261821Y-1018560D01*
X-162539Y-1024178D02*
G01*
X-162539Y-928291D01*
X-294660Y-928291D01*
X-294660Y-1024178D01*
X-162539Y-1109421D02*
G01*
X-162539Y-1205308D01*
X-294660Y-1205308D01*
X-294660Y-1109421D01*
D10*
X-304101Y-2021177D02*
G01*
X-304101Y-1941174D01*
X-193126Y-2052162D02*
G01*
X-273123Y-2052162D01*
X-193126Y-1910196D02*
G01*
X-273123Y-1910196D01*
X-135536Y-2052744D02*
G01*
X-55537Y-2052744D01*
X-24554Y-2021761D02*
G01*
X-24554Y-1941763D01*
X-135536Y-1910783D02*
G01*
X-55537Y-1910783D01*
X-304101Y-2211677D02*
G01*
X-304101Y-2131674D01*
X-193126Y-2242662D02*
G01*
X-273123Y-2242662D01*
X-193126Y-2100696D02*
G01*
X-273123Y-2100696D01*
X-135536Y-2243244D02*
G01*
X-55537Y-2243244D01*
X-24554Y-2212261D02*
G01*
X-24554Y-2132263D01*
X-135536Y-2101283D02*
G01*
X-55537Y-2101283D01*
X912522Y-1029398D02*
G01*
X992525Y-1029398D01*
X881537Y-1140373D02*
G01*
X881537Y-1060376D01*
X1023503Y-1140373D02*
G01*
X1023503Y-1060376D01*
X880955Y-1197963D02*
G01*
X880955Y-1277962D01*
X911938Y-1308945D02*
G01*
X991936Y-1308945D01*
X1022916Y-1197963D02*
G01*
X1022916Y-1277962D01*
X876300Y-2286000D02*
G01*
X114300Y-2286000D01*
X114300Y-2032000D01*
X876300Y-2032000D02*
G01*
X114300Y-2032000D01*
X876300Y-2286000D02*
G01*
X876300Y-2032000D01*
X617456Y-2286000D02*
G01*
X617456Y-2032000D01*
D28*
X-137020Y-1574126D02*
G01*
X-137020Y-1219847D01*
X848220Y-1219847D01*
X848220Y-1574126D01*
X-137020Y-1574126D01*
D10*
G75*
G01*
X-24549Y-2021761D02*
G02*
X-55532Y-2052744I-30983J0D01*
G75*
G01*
X-55532Y-1910778D02*
G02*
X-24549Y-1941764I0J-30983D01*
G75*
G01*
X-273119Y-2052163D02*
G02*
X-304101Y-2021177I0J30983D01*
G75*
G01*
X-304101Y-1941180D02*
G02*
X-273119Y-1910197I30982J0D01*
G75*
G01*
X-24549Y-2212261D02*
G02*
X-55532Y-2243244I-30983J0D01*
G75*
G01*
X-55532Y-2101278D02*
G02*
X-24549Y-2132264I0J-30983D01*
G75*
G01*
X-273119Y-2242663D02*
G02*
X-304101Y-2211677I0J30983D01*
G75*
G01*
X-304101Y-2131680D02*
G02*
X-273119Y-2100697I30982J0D01*
G75*
G01*
X911939Y-1308951D02*
G02*
X880956Y-1277968I0J30983D01*
G75*
G01*
X1022922Y-1277968D02*
G02*
X991936Y-1308951I-30983J0D01*
G75*
G01*
X881537Y-1060381D02*
G02*
X912523Y-1029399I30983J0D01*
G75*
G01*
X992520Y-1029399D02*
G02*
X1023503Y-1060381I0J-30982D01*
D29*
G75*
G01
X-51892Y-1498905D02*
G03X-51892Y-1498905I-15011J0D01*
G75*
G01
X-114275Y-1683588D02*
G03X-114275Y-1683588I-15011J0D01*
M02*
