G04 Layer: TopPasteMaskLayer*
G04 EasyEDA v6.5.3, 2022-04-20 15:58:44*
G04 ff22b18d42d7425680d8988076959c4e,2865ae9118a24060a17af6d01c9bcc73,10*
G04 Gerber Generator version 0.2*
G04 Scale: 100 percent, Rotated: No, Reflected: No *
G04 Dimensions in millimeters *
G04 leading zeros omitted , absolute positions ,4 integer and 5 decimal *
%FSLAX45Y45*%
%MOMM*%

%ADD12C,0.3430*%
%ADD19R,0.8000X0.9000*%
%ADD20R,0.9000X0.8000*%

%LPD*%
G36*
X1103020Y-1234389D02*
G01*
X1097991Y-1239418D01*
X1097991Y-1319377D01*
X1103020Y-1324406D01*
X1125778Y-1324406D01*
X1125778Y-1287373D01*
X1158798Y-1287373D01*
X1158798Y-1324406D01*
X1182979Y-1324406D01*
X1188008Y-1319377D01*
X1188008Y-1239418D01*
X1182979Y-1234389D01*
G37*
G36*
X1103020Y-1394409D02*
G01*
X1097991Y-1399387D01*
X1097991Y-1478381D01*
X1103020Y-1483410D01*
X1182979Y-1483410D01*
X1188008Y-1478381D01*
X1188008Y-1399387D01*
X1182979Y-1394409D01*
X1158798Y-1394409D01*
X1158798Y-1432407D01*
X1125778Y-1432407D01*
X1125778Y-1394409D01*
G37*
G36*
X1099718Y-526491D02*
G01*
X1094689Y-531520D01*
X1094689Y-611479D01*
X1099718Y-616508D01*
X1179677Y-616508D01*
X1184706Y-611479D01*
X1184706Y-588721D01*
X1147724Y-588721D01*
X1147724Y-555701D01*
X1184706Y-555701D01*
X1184706Y-531520D01*
X1179677Y-526491D01*
G37*
G36*
X1259687Y-526491D02*
G01*
X1254709Y-531520D01*
X1254709Y-555701D01*
X1292707Y-555701D01*
X1292707Y-588721D01*
X1254709Y-588721D01*
X1254709Y-611479D01*
X1259687Y-616508D01*
X1338681Y-616508D01*
X1343710Y-611479D01*
X1343710Y-531520D01*
X1338681Y-526491D01*
G37*
G36*
X1099718Y-716991D02*
G01*
X1094689Y-722020D01*
X1094689Y-801979D01*
X1099718Y-807008D01*
X1179677Y-807008D01*
X1184706Y-801979D01*
X1184706Y-779221D01*
X1147724Y-779221D01*
X1147724Y-746201D01*
X1184706Y-746201D01*
X1184706Y-722020D01*
X1179677Y-716991D01*
G37*
G36*
X1259687Y-716991D02*
G01*
X1254709Y-722020D01*
X1254709Y-746201D01*
X1292707Y-746201D01*
X1292707Y-779221D01*
X1254709Y-779221D01*
X1254709Y-801979D01*
X1259687Y-807008D01*
X1338681Y-807008D01*
X1343710Y-801979D01*
X1343710Y-722020D01*
X1338681Y-716991D01*
G37*
G36*
X1099718Y-907491D02*
G01*
X1094689Y-912520D01*
X1094689Y-992479D01*
X1099718Y-997508D01*
X1179677Y-997508D01*
X1184706Y-992479D01*
X1184706Y-969721D01*
X1147724Y-969721D01*
X1147724Y-936701D01*
X1184706Y-936701D01*
X1184706Y-912520D01*
X1179677Y-907491D01*
G37*
G36*
X1259687Y-907491D02*
G01*
X1254709Y-912520D01*
X1254709Y-936701D01*
X1292707Y-936701D01*
X1292707Y-969721D01*
X1254709Y-969721D01*
X1254709Y-992479D01*
X1259687Y-997508D01*
X1338681Y-997508D01*
X1343710Y-992479D01*
X1343710Y-912520D01*
X1338681Y-907491D01*
G37*
G36*
X-268579Y-942289D02*
G01*
X-273608Y-947318D01*
X-273608Y-1027277D01*
X-268579Y-1032306D01*
X-245821Y-1032306D01*
X-245821Y-995273D01*
X-212801Y-995273D01*
X-212801Y-1032306D01*
X-188620Y-1032306D01*
X-183591Y-1027277D01*
X-183591Y-947318D01*
X-188620Y-942289D01*
G37*
G36*
X-268579Y-1102309D02*
G01*
X-273608Y-1107287D01*
X-273608Y-1186281D01*
X-268579Y-1191310D01*
X-188620Y-1191310D01*
X-183591Y-1186281D01*
X-183591Y-1107287D01*
X-188620Y-1102309D01*
X-212801Y-1102309D01*
X-212801Y-1140307D01*
X-245821Y-1140307D01*
X-245821Y-1102309D01*
G37*
D12*
X-66903Y-1614162D02*
G01*
X-66903Y-1753014D01*
X-1904Y-1614162D02*
G01*
X-1904Y-1753014D01*
X63093Y-1614162D02*
G01*
X63093Y-1753014D01*
X128092Y-1614162D02*
G01*
X128092Y-1753014D01*
X193090Y-1614162D02*
G01*
X193090Y-1753014D01*
X258089Y-1614162D02*
G01*
X258089Y-1753014D01*
X323113Y-1614162D02*
G01*
X323113Y-1753014D01*
X388111Y-1614162D02*
G01*
X388111Y-1753014D01*
X453110Y-1614162D02*
G01*
X453110Y-1753014D01*
X518109Y-1614162D02*
G01*
X518109Y-1753014D01*
X583107Y-1614162D02*
G01*
X583107Y-1753014D01*
X648106Y-1614162D02*
G01*
X648106Y-1753014D01*
X713104Y-1614162D02*
G01*
X713104Y-1753014D01*
X778103Y-1614162D02*
G01*
X778103Y-1753014D01*
X-66903Y-1041011D02*
G01*
X-66903Y-1179863D01*
X-1904Y-1041011D02*
G01*
X-1904Y-1179863D01*
X63093Y-1041011D02*
G01*
X63093Y-1179863D01*
X128092Y-1041011D02*
G01*
X128092Y-1179863D01*
X193090Y-1041011D02*
G01*
X193090Y-1179863D01*
X258089Y-1041011D02*
G01*
X258089Y-1179863D01*
X323113Y-1041011D02*
G01*
X323113Y-1179863D01*
X388111Y-1041011D02*
G01*
X388111Y-1179863D01*
X453110Y-1041011D02*
G01*
X453110Y-1179863D01*
X518109Y-1041011D02*
G01*
X518109Y-1179863D01*
X583107Y-1041011D02*
G01*
X583107Y-1179863D01*
X648106Y-1041011D02*
G01*
X648106Y-1179863D01*
X713104Y-1041011D02*
G01*
X713104Y-1179863D01*
X778103Y-1041011D02*
G01*
X778103Y-1179863D01*
G36*
X1293500Y-1378590D02*
G01*
X1373499Y-1378590D01*
X1373499Y-1458589D01*
X1293500Y-1458589D01*
G37*
G36*
X1293500Y-1208410D02*
G01*
X1373499Y-1208410D01*
X1373499Y-1288409D01*
X1293500Y-1288409D01*
G37*
G36*
X853401Y-1819600D02*
G01*
X1203403Y-1819600D01*
X1203403Y-1939599D01*
X853401Y-1939599D01*
G37*
G36*
X1387396Y-1819600D02*
G01*
X1737398Y-1819600D01*
X1737398Y-1939599D01*
X1387396Y-1939599D01*
G37*
D19*
G01*
X-235102Y-1981200D03*
G01*
X-95097Y-1981200D03*
G01*
X-235102Y-2171700D03*
G01*
X-95097Y-2171700D03*
D20*
G01*
X952500Y-1098397D03*
G01*
X952500Y-1238402D03*
G36*
X45600Y-1534487D02*
G01*
X45600Y-1259486D01*
X665599Y-1259486D01*
X665599Y-1534487D01*
G37*
M02*
