G04 Layer: TopSilkscreenLayer*
G04 EasyEDA v6.5.42, 2024-04-26 14:21:03*
G04 d11b9ede4b21459db86d56cd7f11aed4,2865ae9118a24060a17af6d01c9bcc73,10*
G04 Gerber Generator version 0.2*
G04 Scale: 100 percent, Rotated: No, Reflected: No *
G04 Dimensions in millimeters *
G04 leading zeros omitted , absolute positions ,4 integer and 5 decimal *
%FSLAX45Y45*%
%MOMM*%

%ADD10C,0.2032*%
%ADD11C,0.2540*%
%ADD12C,0.2030*%
%ADD13C,0.1524*%
%ADD14C,0.3000*%
%ADD15C,0.0129*%

%LPD*%
D10*
X1691893Y-1398523D02*
G01*
X1691891Y-1480565D01*
X1651000Y-1439418D02*
G01*
X1732788Y-1439418D01*
X1718818Y-660400D02*
G01*
X1718818Y-578612D01*
X1392427Y-1099312D02*
G01*
X1395984Y-1110234D01*
X1403350Y-1114044D01*
X1410715Y-1114044D01*
X1417827Y-1110234D01*
X1421638Y-1103121D01*
X1425193Y-1088389D01*
X1428750Y-1077721D01*
X1436115Y-1070355D01*
X1443481Y-1066800D01*
X1454404Y-1066800D01*
X1461515Y-1070355D01*
X1465325Y-1073912D01*
X1468881Y-1084834D01*
X1468881Y-1099312D01*
X1465325Y-1110234D01*
X1461515Y-1114044D01*
X1454404Y-1117600D01*
X1443481Y-1117600D01*
X1436115Y-1114044D01*
X1428750Y-1106678D01*
X1425193Y-1095755D01*
X1421638Y-1081278D01*
X1417827Y-1073912D01*
X1410715Y-1070355D01*
X1403350Y-1070355D01*
X1395984Y-1073912D01*
X1392427Y-1084834D01*
X1392427Y-1099312D01*
X1436115Y-1042670D02*
G01*
X1436115Y-977137D01*
X1392427Y-945895D02*
G01*
X1392427Y-906018D01*
X1421638Y-927862D01*
X1421638Y-916939D01*
X1425193Y-909573D01*
X1428750Y-906018D01*
X1439672Y-902207D01*
X1447038Y-902207D01*
X1457959Y-906018D01*
X1465325Y-913129D01*
X1468881Y-924052D01*
X1468881Y-934973D01*
X1465325Y-945895D01*
X1461515Y-949705D01*
X1454404Y-953262D01*
X1392427Y-834644D02*
G01*
X1392427Y-870965D01*
X1425193Y-874776D01*
X1421638Y-870965D01*
X1417827Y-860044D01*
X1417827Y-849121D01*
X1421638Y-838454D01*
X1428750Y-831087D01*
X1439672Y-827531D01*
X1447038Y-827531D01*
X1457959Y-831087D01*
X1465325Y-838454D01*
X1468881Y-849121D01*
X1468881Y-860044D01*
X1465325Y-870965D01*
X1461515Y-874776D01*
X1454404Y-878331D01*
X1392427Y-803402D02*
G01*
X1468881Y-774445D01*
X1392427Y-745236D02*
G01*
X1468881Y-774445D01*
X-294386Y-1809750D02*
G01*
X-302513Y-1817878D01*
X-306831Y-1830070D01*
X-306831Y-1846326D01*
X-302513Y-1858771D01*
X-294386Y-1866900D01*
X-286257Y-1866900D01*
X-278129Y-1862836D01*
X-274065Y-1858771D01*
X-270002Y-1850644D01*
X-261620Y-1826005D01*
X-257555Y-1817878D01*
X-253492Y-1813813D01*
X-245363Y-1809750D01*
X-233171Y-1809750D01*
X-224789Y-1817878D01*
X-220726Y-1830070D01*
X-220726Y-1846326D01*
X-224789Y-1858771D01*
X-233171Y-1866900D01*
X-306831Y-1782571D02*
G01*
X-302513Y-1778507D01*
X-306831Y-1774444D01*
X-310895Y-1778507D01*
X-306831Y-1782571D01*
X-278129Y-1778507D02*
G01*
X-220726Y-1778507D01*
X-278129Y-1747520D02*
G01*
X-220726Y-1747520D01*
X-261620Y-1747520D02*
G01*
X-274065Y-1735073D01*
X-278129Y-1726945D01*
X-278129Y-1714754D01*
X-274065Y-1706626D01*
X-261620Y-1702562D01*
X-220726Y-1702562D01*
X-261620Y-1702562D02*
G01*
X-274065Y-1690115D01*
X-278129Y-1681987D01*
X-278129Y-1669795D01*
X-274065Y-1661413D01*
X-261620Y-1657350D01*
X-220726Y-1657350D01*
X-278129Y-1630426D02*
G01*
X-192278Y-1630426D01*
X-265684Y-1630426D02*
G01*
X-274065Y-1622297D01*
X-278129Y-1614170D01*
X-278129Y-1601723D01*
X-274065Y-1593595D01*
X-265684Y-1585468D01*
X-253492Y-1581404D01*
X-245363Y-1581404D01*
X-233171Y-1585468D01*
X-224789Y-1593595D01*
X-220726Y-1601723D01*
X-220726Y-1614170D01*
X-224789Y-1622297D01*
X-233171Y-1630426D01*
X-306831Y-1554479D02*
G01*
X-220726Y-1554479D01*
X-253492Y-1527302D02*
G01*
X-253492Y-1478279D01*
X-261620Y-1478279D01*
X-270002Y-1482344D01*
X-274065Y-1486407D01*
X-278129Y-1494536D01*
X-278129Y-1506981D01*
X-274065Y-1515110D01*
X-265684Y-1523237D01*
X-253492Y-1527302D01*
X-245363Y-1527302D01*
X-233171Y-1523237D01*
X-224789Y-1515110D01*
X-220726Y-1506981D01*
X-220726Y-1494536D01*
X-224789Y-1486407D01*
X-233171Y-1478279D01*
X-306831Y-1451355D02*
G01*
X-220726Y-1451355D01*
X-306831Y-1451355D02*
G01*
X-306831Y-1398015D01*
X-265684Y-1451355D02*
G01*
X-265684Y-1418589D01*
X-306831Y-1346454D02*
G01*
X-302513Y-1354836D01*
X-294386Y-1362963D01*
X-286257Y-1367028D01*
X-274065Y-1371092D01*
X-253492Y-1371092D01*
X-241300Y-1367028D01*
X-233171Y-1362963D01*
X-224789Y-1354836D01*
X-220726Y-1346454D01*
X-220726Y-1330197D01*
X-224789Y-1322070D01*
X-233171Y-1313687D01*
X-241300Y-1309623D01*
X-253492Y-1305560D01*
X-274065Y-1305560D01*
X-286257Y-1309623D01*
X-294386Y-1313687D01*
X-302513Y-1322070D01*
X-306831Y-1330197D01*
X-306831Y-1346454D01*
X-286257Y-1217168D02*
G01*
X-294386Y-1221231D01*
X-302513Y-1229613D01*
X-306831Y-1237742D01*
X-306831Y-1253997D01*
X-302513Y-1262379D01*
X-294386Y-1270507D01*
X-286257Y-1274571D01*
X-274065Y-1278636D01*
X-253492Y-1278636D01*
X-241300Y-1274571D01*
X-233171Y-1270507D01*
X-224789Y-1262379D01*
X-220726Y-1253997D01*
X-220726Y-1237742D01*
X-224789Y-1229613D01*
X-233171Y-1221231D01*
X-241300Y-1217168D01*
X1473200Y-433070D02*
G01*
X1497838Y-490473D01*
X1522222Y-433070D02*
G01*
X1497838Y-490473D01*
X1549400Y-420878D02*
G01*
X1557527Y-416813D01*
X1569720Y-404368D01*
X1569720Y-490473D01*
X1600961Y-469900D02*
G01*
X1596643Y-473963D01*
X1600961Y-478028D01*
X1605025Y-473963D01*
X1600961Y-469900D01*
X1631950Y-420878D02*
G01*
X1640077Y-416813D01*
X1652270Y-404368D01*
X1652270Y-490473D01*
X76200Y-1935987D02*
G01*
X76200Y-2002789D01*
X76200Y-1935987D02*
G01*
X101600Y-2002789D01*
X127000Y-1935987D02*
G01*
X101600Y-2002789D01*
X127000Y-1935987D02*
G01*
X127000Y-2002789D01*
X148081Y-1948687D02*
G01*
X154431Y-1945386D01*
X164084Y-1935987D01*
X164084Y-2002789D01*
X330200Y-1935987D02*
G01*
X330200Y-2002789D01*
X330200Y-1935987D02*
G01*
X355600Y-2002789D01*
X381000Y-1935987D02*
G01*
X355600Y-2002789D01*
X381000Y-1935987D02*
G01*
X381000Y-2002789D01*
X405384Y-1951989D02*
G01*
X405384Y-1948687D01*
X408431Y-1942337D01*
X411734Y-1939036D01*
X418084Y-1935987D01*
X430784Y-1935987D01*
X437134Y-1939036D01*
X440181Y-1942337D01*
X443484Y-1948687D01*
X443484Y-1955037D01*
X440181Y-1961387D01*
X433831Y-1971039D01*
X402081Y-2002789D01*
X446531Y-2002789D01*
X596798Y-1935886D02*
G01*
X596798Y-2002688D01*
X596798Y-1935886D02*
G01*
X622452Y-2002688D01*
X647852Y-1935886D02*
G01*
X622452Y-2002688D01*
X647852Y-1935886D02*
G01*
X647852Y-2002688D01*
X675284Y-1935886D02*
G01*
X710082Y-1935886D01*
X691032Y-1961286D01*
X700684Y-1961286D01*
X707034Y-1964588D01*
X710082Y-1967890D01*
X713384Y-1977288D01*
X713384Y-1983638D01*
X710082Y-1993290D01*
X703732Y-1999640D01*
X694334Y-2002688D01*
X684682Y-2002688D01*
X675284Y-1999640D01*
X671982Y-1996338D01*
X668680Y-1989988D01*
X1384300Y-259842D02*
G01*
X1384300Y-374395D01*
X1384300Y-259842D02*
G01*
X1427988Y-374395D01*
X1471675Y-259842D02*
G01*
X1427988Y-374395D01*
X1471675Y-259842D02*
G01*
X1471675Y-374395D01*
X1507490Y-259842D02*
G01*
X1513077Y-265429D01*
X1518411Y-259842D01*
X1513077Y-254507D01*
X1507490Y-259842D01*
X1513077Y-298195D02*
G01*
X1513077Y-374395D01*
X1554479Y-298195D02*
G01*
X1554479Y-374395D01*
X1554479Y-319786D02*
G01*
X1570736Y-303529D01*
X1581658Y-298195D01*
X1598168Y-298195D01*
X1609090Y-303529D01*
X1614424Y-319786D01*
X1614424Y-374395D01*
X1650491Y-259842D02*
G01*
X1655825Y-265429D01*
X1661413Y-259842D01*
X1655825Y-254507D01*
X1650491Y-259842D01*
X1655825Y-298195D02*
G01*
X1655825Y-374395D01*
X831850Y-818387D02*
G01*
X866902Y-818387D01*
X847852Y-843787D01*
X857250Y-843787D01*
X863600Y-847089D01*
X866902Y-850137D01*
X869950Y-859789D01*
X869950Y-866139D01*
X866902Y-875537D01*
X860552Y-881887D01*
X850900Y-885189D01*
X841502Y-885189D01*
X831850Y-881887D01*
X828802Y-878839D01*
X825500Y-872489D01*
X891031Y-818387D02*
G01*
X916431Y-885189D01*
X941831Y-818387D02*
G01*
X916431Y-885189D01*
X969263Y-818387D02*
G01*
X1004315Y-818387D01*
X985265Y-843787D01*
X994663Y-843787D01*
X1001013Y-847089D01*
X1004315Y-850137D01*
X1007618Y-859789D01*
X1007618Y-866139D01*
X1004315Y-875537D01*
X997965Y-881887D01*
X988313Y-885189D01*
X978915Y-885189D01*
X969263Y-881887D01*
X966215Y-878839D01*
X962913Y-872489D01*
X-152400Y-828039D02*
G01*
X-152400Y-872489D01*
X-152400Y-840739D02*
G01*
X-142747Y-831087D01*
X-136397Y-828039D01*
X-127000Y-828039D01*
X-120650Y-831087D01*
X-117347Y-840739D01*
X-117347Y-872489D01*
X-96520Y-805687D02*
G01*
X-96520Y-872489D01*
X-96520Y-805687D02*
G01*
X-55118Y-805687D01*
X-96520Y-837437D02*
G01*
X-70865Y-837437D01*
X-11684Y-805687D02*
G01*
X-11684Y-872489D01*
X-34036Y-805687D02*
G01*
X10413Y-805687D01*
X63500Y-828039D02*
G01*
X63500Y-872489D01*
X63500Y-840739D02*
G01*
X73152Y-831087D01*
X79502Y-828039D01*
X88900Y-828039D01*
X95250Y-831087D01*
X98552Y-840739D01*
X98552Y-872489D01*
X164084Y-815086D02*
G01*
X157734Y-808736D01*
X148081Y-805687D01*
X135381Y-805687D01*
X125984Y-808736D01*
X119379Y-815086D01*
X119379Y-821689D01*
X122681Y-828039D01*
X125984Y-831087D01*
X132334Y-834389D01*
X151384Y-840739D01*
X157734Y-843787D01*
X160781Y-847089D01*
X164084Y-853439D01*
X164084Y-862837D01*
X157734Y-869187D01*
X148081Y-872489D01*
X135381Y-872489D01*
X125984Y-869187D01*
X119379Y-862837D01*
X185165Y-805687D02*
G01*
X185165Y-872489D01*
X185165Y-805687D02*
G01*
X213613Y-805687D01*
X223265Y-808736D01*
X226313Y-812037D01*
X229615Y-818387D01*
X229615Y-828039D01*
X226313Y-834389D01*
X223265Y-837437D01*
X213613Y-840739D01*
X185165Y-840739D01*
X304800Y-840739D02*
G01*
X304800Y-885189D01*
X304800Y-853439D02*
G01*
X314452Y-843787D01*
X320802Y-840739D01*
X330200Y-840739D01*
X336550Y-843787D01*
X339852Y-853439D01*
X339852Y-885189D01*
X360679Y-818387D02*
G01*
X360679Y-885189D01*
X360679Y-818387D02*
G01*
X389381Y-818387D01*
X399034Y-821436D01*
X402081Y-824737D01*
X405384Y-831087D01*
X405384Y-837437D01*
X402081Y-843787D01*
X399034Y-847089D01*
X389381Y-850137D01*
X360679Y-850137D01*
X383031Y-850137D02*
G01*
X405384Y-885189D01*
X448563Y-818387D02*
G01*
X448563Y-885189D01*
X426465Y-818387D02*
G01*
X470915Y-818387D01*
X606552Y-821689D02*
G01*
X603250Y-815086D01*
X596900Y-808736D01*
X590550Y-805687D01*
X577850Y-805687D01*
X571500Y-808736D01*
X565150Y-815086D01*
X562102Y-821689D01*
X558800Y-831087D01*
X558800Y-847089D01*
X562102Y-856487D01*
X565150Y-862837D01*
X571500Y-869187D01*
X577850Y-872489D01*
X590550Y-872489D01*
X596900Y-869187D01*
X603250Y-862837D01*
X606552Y-856487D01*
X606552Y-847089D01*
X590550Y-847089D02*
G01*
X606552Y-847089D01*
X627634Y-805687D02*
G01*
X627634Y-872489D01*
X627634Y-805687D02*
G01*
X672084Y-872489D01*
X672084Y-805687D02*
G01*
X672084Y-872489D01*
X693165Y-805687D02*
G01*
X693165Y-872489D01*
X693165Y-805687D02*
G01*
X715263Y-805687D01*
X724915Y-808736D01*
X731265Y-815086D01*
X734313Y-821689D01*
X737615Y-831087D01*
X737615Y-847089D01*
X734313Y-856487D01*
X731265Y-862837D01*
X724915Y-869187D01*
X715263Y-872489D01*
X693165Y-872489D01*
G36*
X1526387Y-2021484D02*
G01*
X1526387Y-2041296D01*
X1605584Y-2041296D01*
X1605584Y-2021484D01*
G37*
G36*
X985215Y-2021484D02*
G01*
X985215Y-2041296D01*
X1064412Y-2041296D01*
X1064412Y-2021484D01*
G37*
G36*
X1014882Y-1965401D02*
G01*
X1014882Y-2097379D01*
X1034694Y-2097379D01*
X1034694Y-1965401D01*
G37*
D11*
X1054100Y-266700D02*
G01*
X1244600Y-266700D01*
X1270000Y-292100D01*
X1270000Y-495300D01*
X1244600Y-520700D01*
X1054100Y-520700D01*
X1247140Y-1510029D02*
G01*
X1419859Y-1510029D01*
X1419859Y-1510029D02*
G01*
X1419859Y-1362710D01*
X1247140Y-1510029D02*
G01*
X1247140Y-1362710D01*
X1419859Y-1304289D02*
G01*
X1419859Y-1187450D01*
X1247140Y-1301750D02*
G01*
X1247140Y-1187450D01*
X1247140Y-1187450D02*
G01*
X1282700Y-1151889D01*
X1384300Y-1151889D01*
X1419859Y-1187450D01*
D12*
X1292859Y-1341120D02*
G01*
X1371600Y-1341120D01*
X1332704Y-1341120D02*
G01*
X1332704Y-1323583D01*
D13*
X1209060Y-1316278D02*
G01*
X1209060Y-1220391D01*
X1076939Y-1220391D01*
X1076939Y-1316278D01*
X1209060Y-1401521D02*
G01*
X1209060Y-1497408D01*
X1076939Y-1497408D01*
X1076939Y-1401521D01*
X1630961Y-1953526D02*
G01*
X1632965Y-2217165D01*
X1097279Y-2217165D01*
X957834Y-2077720D01*
X959170Y-1948179D01*
X1632348Y-1808830D02*
G01*
X1633016Y-1541983D01*
X1097396Y-1541983D01*
X957783Y-1681596D01*
X957783Y-1811020D01*
D11*
X1054100Y-774700D02*
G01*
X-266700Y-774700D01*
X-266700Y-266700D01*
X1054100Y-266700D01*
X1054100Y-774700D01*
X1054100Y-520700D02*
G01*
X774700Y-520700D01*
X774700Y-266700D01*
X1054100Y-266700D01*
X1054100Y-520700D01*
D13*
X1176578Y-581639D02*
G01*
X1080691Y-581639D01*
X1080691Y-713760D01*
X1176578Y-713760D01*
X1261821Y-581639D02*
G01*
X1357708Y-581639D01*
X1357708Y-713760D01*
X1261821Y-713760D01*
X1176578Y-759439D02*
G01*
X1080691Y-759439D01*
X1080691Y-891560D01*
X1176578Y-891560D01*
X1261821Y-759439D02*
G01*
X1357708Y-759439D01*
X1357708Y-891560D01*
X1261821Y-891560D01*
X1176578Y-924539D02*
G01*
X1080691Y-924539D01*
X1080691Y-1056660D01*
X1176578Y-1056660D01*
X1261821Y-924539D02*
G01*
X1357708Y-924539D01*
X1357708Y-1056660D01*
X1261821Y-1056660D01*
X-294660Y-1071321D02*
G01*
X-294660Y-1167208D01*
X-162539Y-1167208D01*
X-162539Y-1071321D01*
X-294660Y-986078D02*
G01*
X-294660Y-890191D01*
X-162539Y-890191D01*
X-162539Y-986078D01*
D11*
X-304101Y-2021177D02*
G01*
X-304101Y-1941174D01*
X-193126Y-2052162D02*
G01*
X-273123Y-2052162D01*
X-193126Y-1910196D02*
G01*
X-273123Y-1910196D01*
X-135536Y-2052744D02*
G01*
X-55537Y-2052744D01*
X-24554Y-2021761D02*
G01*
X-24554Y-1941763D01*
X-135536Y-1910783D02*
G01*
X-55537Y-1910783D01*
X-304101Y-2211677D02*
G01*
X-304101Y-2131674D01*
X-193126Y-2242662D02*
G01*
X-273123Y-2242662D01*
X-193126Y-2100696D02*
G01*
X-273123Y-2100696D01*
X-135536Y-2243244D02*
G01*
X-55537Y-2243244D01*
X-24554Y-2212261D02*
G01*
X-24554Y-2132263D01*
X-135536Y-2101283D02*
G01*
X-55537Y-2101283D01*
X912522Y-1029398D02*
G01*
X992525Y-1029398D01*
X881537Y-1140373D02*
G01*
X881537Y-1060376D01*
X1023503Y-1140373D02*
G01*
X1023503Y-1060376D01*
X880955Y-1197963D02*
G01*
X880955Y-1277962D01*
X911938Y-1308945D02*
G01*
X991936Y-1308945D01*
X1022916Y-1197963D02*
G01*
X1022916Y-1277962D01*
X774700Y-2286000D02*
G01*
X12700Y-2286000D01*
X12700Y-2032000D01*
X774700Y-2032000D02*
G01*
X12700Y-2032000D01*
X774700Y-2286000D02*
G01*
X774700Y-2032000D01*
X515856Y-2286000D02*
G01*
X515856Y-2032000D01*
D13*
X-137020Y-1574126D02*
G01*
X-137020Y-1219847D01*
X848220Y-1219847D01*
X848220Y-1574126D01*
X-137020Y-1574126D01*
D11*
G75*
G01*
X-24549Y-2021761D02*
G02*
X-55532Y-2052744I-30983J0D01*
G75*
G01*
X-55532Y-1910778D02*
G02*
X-24549Y-1941764I0J-30983D01*
G75*
G01*
X-273119Y-2052163D02*
G02*
X-304101Y-2021177I0J30983D01*
G75*
G01*
X-304101Y-1941180D02*
G02*
X-273119Y-1910197I30982J0D01*
G75*
G01*
X-24549Y-2212261D02*
G02*
X-55532Y-2243244I-30983J0D01*
G75*
G01*
X-55532Y-2101278D02*
G02*
X-24549Y-2132264I0J-30983D01*
G75*
G01*
X-273119Y-2242663D02*
G02*
X-304101Y-2211677I0J30983D01*
G75*
G01*
X-304101Y-2131680D02*
G02*
X-273119Y-2100697I30982J0D01*
G75*
G01*
X911939Y-1308951D02*
G02*
X880956Y-1277968I0J30983D01*
G75*
G01*
X1022922Y-1277968D02*
G02*
X991936Y-1308951I-30983J0D01*
G75*
G01*
X881537Y-1060381D02*
G02*
X912523Y-1029399I30983J0D01*
G75*
G01*
X992520Y-1029399D02*
G02*
X1023503Y-1060381I0J-30982D01*
D14*
G75*
G01
X-51892Y-1498905D02*
G03X-51892Y-1498905I-15011J0D01*
G75*
G01
X-114275Y-1683588D02*
G03X-114275Y-1683588I-15011J0D01*
M02*
