G04 Layer: TopLayer*
G04 EasyEDA v6.5.42, 2024-04-26 14:21:03*
G04 d11b9ede4b21459db86d56cd7f11aed4,2865ae9118a24060a17af6d01c9bcc73,10*
G04 Gerber Generator version 0.2*
G04 Scale: 100 percent, Rotated: No, Reflected: No *
G04 Dimensions in millimeters *
G04 leading zeros omitted , absolute positions ,4 integer and 5 decimal *
%FSLAX45Y45*%
%MOMM*%

%AMMACRO1*21,1,$1,$2,0,0,$3*%
%ADD10C,0.5000*%
%ADD11C,0.2540*%
%ADD12R,0.8000X0.8000*%
%ADD13MACRO1,0.864X0.8065X0.0000*%
%ADD14R,0.8640X0.8065*%
%ADD15R,3.5000X1.2000*%
%ADD16MACRO1,0.864X0.8065X-90.0000*%
%ADD17R,0.8000X0.9000*%
%ADD18R,0.9000X0.8000*%
%ADD19O,0.3430016X1.7314926000000002*%
%ADD20MACRO1,2.75X6.2X90.0000*%
%ADD21C,1.7000*%
%ADD22C,1.5748*%
%ADD23R,1.5748X1.5748*%
%ADD24O,2.4999949999999997X1.6999966*%
%ADD25C,2.0000*%
%ADD26C,0.6000*%
%ADD27C,0.6096*%
%ADD28C,0.0103*%

%LPD*%
G36*
X-465734Y-2272792D02*
G01*
X-472084Y-2271928D01*
X-487019Y-2268118D01*
X-501497Y-2262632D01*
X-515264Y-2255621D01*
X-528167Y-2247188D01*
X-540105Y-2237333D01*
X-550875Y-2226259D01*
X-560374Y-2214067D01*
X-568452Y-2200910D01*
X-575106Y-2186940D01*
X-580136Y-2172360D01*
X-583590Y-2157272D01*
X-585317Y-2141931D01*
X-585419Y-2126488D01*
X-583793Y-2111095D01*
X-580491Y-2096007D01*
X-575564Y-2081377D01*
X-569061Y-2067356D01*
X-561086Y-2054148D01*
X-551688Y-2041855D01*
X-540969Y-2030679D01*
X-529183Y-2020773D01*
X-516331Y-2012188D01*
X-502615Y-2005025D01*
X-488188Y-1999488D01*
X-473252Y-1995474D01*
X-458927Y-1993341D01*
X-392887Y-1991614D01*
X-386384Y-1990648D01*
X-380949Y-1988413D01*
X-375818Y-1984705D01*
X-373481Y-1982266D01*
X-369925Y-1977085D01*
X-367792Y-1971548D01*
X-367030Y-1965045D01*
X-368554Y-538835D01*
X-369366Y-532333D01*
X-371449Y-526796D01*
X-375005Y-521614D01*
X-377596Y-519023D01*
X-382676Y-515366D01*
X-388162Y-513181D01*
X-394665Y-512318D01*
X-455828Y-511352D01*
X-472490Y-509016D01*
X-487730Y-505104D01*
X-502412Y-499567D01*
X-516432Y-492455D01*
X-529539Y-483819D01*
X-541680Y-473862D01*
X-552602Y-462584D01*
X-562305Y-450240D01*
X-570534Y-436829D01*
X-577240Y-422656D01*
X-582422Y-407822D01*
X-585927Y-392531D01*
X-587705Y-376936D01*
X-587806Y-361238D01*
X-586181Y-345592D01*
X-582828Y-330250D01*
X-577850Y-315366D01*
X-571246Y-301091D01*
X-563168Y-287680D01*
X-553618Y-275183D01*
X-542798Y-263804D01*
X-530809Y-253695D01*
X-517753Y-244957D01*
X-503834Y-237693D01*
X-489204Y-231952D01*
X-474014Y-227888D01*
X-458520Y-225501D01*
X-442823Y-224840D01*
X-427177Y-225907D01*
X-411327Y-228650D01*
X-405942Y-229108D01*
X1826564Y-229108D01*
X1843582Y-231241D01*
X1859381Y-235000D01*
X1874672Y-240436D01*
X1889302Y-247497D01*
X1903120Y-256032D01*
X1915922Y-265988D01*
X1927606Y-277317D01*
X1938020Y-289763D01*
X1947062Y-303276D01*
X1954580Y-317652D01*
X1960524Y-332740D01*
X1964842Y-348386D01*
X1967484Y-364439D01*
X1968398Y-380644D01*
X1967534Y-396849D01*
X1964994Y-412902D01*
X1960778Y-428548D01*
X1954885Y-443687D01*
X1947418Y-458114D01*
X1938426Y-471678D01*
X1928114Y-484174D01*
X1916480Y-495503D01*
X1903730Y-505561D01*
X1889963Y-514197D01*
X1875332Y-521258D01*
X1860092Y-526796D01*
X1844293Y-530656D01*
X1829104Y-532688D01*
X1786737Y-534365D01*
X1778050Y-533095D01*
X1775510Y-533146D01*
X1771700Y-533755D01*
X1765960Y-535940D01*
X1761083Y-539292D01*
X1756968Y-543966D01*
X1755089Y-547065D01*
X1752904Y-552907D01*
X1752092Y-559409D01*
X1752092Y-1126845D01*
X1751380Y-1130604D01*
X1749298Y-1133805D01*
X1746199Y-1136040D01*
X1742490Y-1136954D01*
X1738731Y-1136446D01*
X1682496Y-1117854D01*
X1675841Y-1117092D01*
X1562658Y-1117092D01*
X1556359Y-1117803D01*
X1550670Y-1119784D01*
X1547418Y-1121664D01*
X1471980Y-1171905D01*
X1467154Y-1176020D01*
X1463649Y-1180642D01*
X1461312Y-1185824D01*
X1459992Y-1193190D01*
X1447850Y-1435506D01*
X1447292Y-1438452D01*
X1445869Y-1441094D01*
X1425194Y-1468628D01*
X1422958Y-1470812D01*
X1420164Y-1472234D01*
X1417066Y-1472692D01*
X1409141Y-1472692D01*
X1404975Y-1471828D01*
X1401572Y-1469288D01*
X1399438Y-1465630D01*
X1399032Y-1461414D01*
X1399387Y-1458010D01*
X1399387Y-1379169D01*
X1398676Y-1372819D01*
X1396796Y-1367383D01*
X1393698Y-1362456D01*
X1389634Y-1358392D01*
X1384706Y-1355293D01*
X1379270Y-1353413D01*
X1372920Y-1352702D01*
X1347978Y-1352702D01*
X1344117Y-1351889D01*
X1340815Y-1349705D01*
X1247597Y-1256538D01*
X1241399Y-1251407D01*
X1234694Y-1247851D01*
X1227480Y-1245666D01*
X1220216Y-1244904D01*
X1216558Y-1243838D01*
X1213561Y-1241501D01*
X1211630Y-1238148D01*
X1209497Y-1232052D01*
X1206398Y-1227124D01*
X1202334Y-1223060D01*
X1197406Y-1219962D01*
X1191971Y-1218031D01*
X1185621Y-1217320D01*
X1100378Y-1217320D01*
X1094028Y-1218031D01*
X1088593Y-1219962D01*
X1083665Y-1223060D01*
X1079601Y-1227124D01*
X1076502Y-1232052D01*
X1074623Y-1237488D01*
X1073912Y-1243838D01*
X1073912Y-1323340D01*
X1074623Y-1329639D01*
X1076502Y-1335125D01*
X1079601Y-1340002D01*
X1083665Y-1344117D01*
X1088593Y-1347165D01*
X1094638Y-1349298D01*
X1098194Y-1351432D01*
X1100632Y-1354836D01*
X1101445Y-1358900D01*
X1100632Y-1362964D01*
X1098194Y-1366367D01*
X1094638Y-1368501D01*
X1088847Y-1370533D01*
X1085494Y-1371092D01*
X1054658Y-1371092D01*
X1048359Y-1371803D01*
X1042873Y-1373733D01*
X1037996Y-1376781D01*
X1033932Y-1380845D01*
X1030173Y-1387094D01*
X979779Y-1500428D01*
X855726Y-1748485D01*
X853846Y-1751126D01*
X830427Y-1774494D01*
X827125Y-1776730D01*
X823264Y-1777492D01*
X649935Y-1777492D01*
X646074Y-1776730D01*
X642772Y-1774494D01*
X638505Y-1770227D01*
X636270Y-1766925D01*
X635508Y-1763064D01*
X635508Y-1600504D01*
X634847Y-1594459D01*
X632917Y-1588973D01*
X629818Y-1584045D01*
X627735Y-1581658D01*
X615442Y-1569364D01*
X610666Y-1565554D01*
X605434Y-1563065D01*
X599795Y-1561795D01*
X596595Y-1561592D01*
X571804Y-1561592D01*
X565759Y-1562252D01*
X560273Y-1564182D01*
X555345Y-1567281D01*
X552958Y-1569364D01*
X540664Y-1581658D01*
X536854Y-1586433D01*
X534365Y-1591665D01*
X533095Y-1597304D01*
X532892Y-1600504D01*
X532892Y-1891995D01*
X533552Y-1898040D01*
X535482Y-1903526D01*
X538581Y-1908454D01*
X540664Y-1910842D01*
X603758Y-1973935D01*
X608533Y-1977745D01*
X613765Y-1980234D01*
X619404Y-1981504D01*
X622604Y-1981707D01*
X765098Y-1981707D01*
X767740Y-1982063D01*
X770178Y-1983028D01*
X852017Y-2029764D01*
X857859Y-2031796D01*
X864158Y-2032507D01*
X1193495Y-2032507D01*
X1199540Y-2031847D01*
X1205026Y-2029917D01*
X1209954Y-2026818D01*
X1212342Y-2024735D01*
X1300835Y-1936242D01*
X1304645Y-1931466D01*
X1307134Y-1926234D01*
X1308404Y-1920595D01*
X1308608Y-1917395D01*
X1308608Y-1751330D01*
X1309370Y-1747418D01*
X1311605Y-1744116D01*
X1314907Y-1741932D01*
X1660550Y-1598879D01*
X1664462Y-1596847D01*
X1669135Y-1593189D01*
X1672793Y-1588668D01*
X1675587Y-1582978D01*
X1732381Y-1424025D01*
X1734464Y-1420571D01*
X1737715Y-1418183D01*
X1741627Y-1417269D01*
X1745640Y-1417980D01*
X1748993Y-1420164D01*
X1751279Y-1423466D01*
X1752092Y-1427429D01*
X1752092Y-1941474D01*
X1752904Y-1947976D01*
X1754987Y-1953514D01*
X1758543Y-1958695D01*
X1760931Y-1961134D01*
X1766011Y-1964842D01*
X1771497Y-1967077D01*
X1778000Y-1967992D01*
X1829054Y-1969211D01*
X1845360Y-1971446D01*
X1861108Y-1975408D01*
X1876348Y-1981047D01*
X1890877Y-1988261D01*
X1904593Y-1996998D01*
X1917293Y-2007107D01*
X1928825Y-2018538D01*
X1939086Y-2031085D01*
X1947925Y-2044700D01*
X1955292Y-2059178D01*
X1961083Y-2074367D01*
X1965198Y-2090064D01*
X1967636Y-2106117D01*
X1968347Y-2122322D01*
X1967331Y-2138527D01*
X1964588Y-2154580D01*
X1960168Y-2170176D01*
X1954123Y-2185263D01*
X1946503Y-2199589D01*
X1937359Y-2213000D01*
X1926843Y-2225395D01*
X1915109Y-2236622D01*
X1902206Y-2246477D01*
X1888388Y-2254961D01*
X1873707Y-2261870D01*
X1858365Y-2267204D01*
X1842516Y-2270861D01*
X1826564Y-2272792D01*
X752246Y-2272792D01*
X748334Y-2272030D01*
X745032Y-2269794D01*
X742848Y-2266543D01*
X742086Y-2262632D01*
X742848Y-2258720D01*
X745032Y-2255469D01*
X746658Y-2253843D01*
X749706Y-2248966D01*
X751636Y-2243480D01*
X752348Y-2237181D01*
X752348Y-2080818D01*
X751636Y-2074519D01*
X749706Y-2069033D01*
X746658Y-2064156D01*
X742543Y-2060041D01*
X737666Y-2056993D01*
X732180Y-2055063D01*
X725881Y-2054352D01*
X657352Y-2054352D01*
X653491Y-2053589D01*
X650189Y-2051354D01*
X507034Y-1908200D01*
X504799Y-1904949D01*
X504037Y-1901037D01*
X504037Y-1683969D01*
X503224Y-1674672D01*
X500938Y-1666138D01*
X497128Y-1657908D01*
X496163Y-1653590D01*
X496163Y-1614627D01*
X495401Y-1606245D01*
X493217Y-1598574D01*
X489661Y-1591513D01*
X484885Y-1585163D01*
X479043Y-1579829D01*
X472287Y-1575612D01*
X464870Y-1572768D01*
X457047Y-1571294D01*
X449122Y-1571294D01*
X441350Y-1572768D01*
X433984Y-1575612D01*
X426059Y-1580642D01*
X422503Y-1582064D01*
X418693Y-1582064D01*
X415137Y-1580642D01*
X407212Y-1575612D01*
X399846Y-1572768D01*
X392074Y-1571294D01*
X384149Y-1571294D01*
X376326Y-1572768D01*
X368909Y-1575612D01*
X362153Y-1579829D01*
X356311Y-1585163D01*
X351536Y-1591513D01*
X347980Y-1598574D01*
X345795Y-1606245D01*
X345033Y-1614627D01*
X345033Y-1653692D01*
X344068Y-1658010D01*
X340309Y-1666138D01*
X338023Y-1674672D01*
X337210Y-1683969D01*
X337210Y-1815490D01*
X336448Y-1819351D01*
X334213Y-1822653D01*
X330911Y-1824888D01*
X327050Y-1825650D01*
X323138Y-1824888D01*
X319836Y-1822653D01*
X246938Y-1749704D01*
X244703Y-1746453D01*
X243941Y-1742541D01*
X243941Y-1683969D01*
X243128Y-1674672D01*
X240842Y-1666138D01*
X237134Y-1658112D01*
X236169Y-1653844D01*
X236169Y-1614627D01*
X235407Y-1606245D01*
X233222Y-1598574D01*
X229666Y-1591513D01*
X224891Y-1585163D01*
X218998Y-1579829D01*
X212293Y-1575612D01*
X204876Y-1572768D01*
X197053Y-1571294D01*
X189128Y-1571294D01*
X181305Y-1572768D01*
X173278Y-1575866D01*
X169468Y-1576578D01*
X165658Y-1575765D01*
X162407Y-1573580D01*
X155854Y-1567281D01*
X150926Y-1564182D01*
X145440Y-1562252D01*
X139395Y-1561592D01*
X114604Y-1561592D01*
X108559Y-1562252D01*
X103073Y-1564182D01*
X98298Y-1567180D01*
X91998Y-1573123D01*
X88798Y-1575206D01*
X85090Y-1575968D01*
X81330Y-1575257D01*
X74879Y-1572768D01*
X67056Y-1571294D01*
X59131Y-1571294D01*
X51308Y-1572768D01*
X43992Y-1575612D01*
X36017Y-1580642D01*
X32512Y-1582064D01*
X28702Y-1582064D01*
X25146Y-1580642D01*
X17221Y-1575612D01*
X9855Y-1572768D01*
X2082Y-1571294D01*
X-5892Y-1571294D01*
X-13665Y-1572768D01*
X-21031Y-1575612D01*
X-28956Y-1580642D01*
X-32512Y-1582064D01*
X-36322Y-1582064D01*
X-39827Y-1580642D01*
X-47752Y-1575612D01*
X-55117Y-1572768D01*
X-62941Y-1571294D01*
X-70866Y-1571294D01*
X-78689Y-1572768D01*
X-86055Y-1575612D01*
X-92811Y-1579829D01*
X-98704Y-1585163D01*
X-103479Y-1591513D01*
X-107035Y-1598574D01*
X-109169Y-1606245D01*
X-109982Y-1614627D01*
X-109982Y-1752498D01*
X-109169Y-1760880D01*
X-105511Y-1773428D01*
X-106222Y-1777593D01*
X-108508Y-1781098D01*
X-165404Y-1837994D01*
X-168706Y-1840230D01*
X-172618Y-1840992D01*
X-202692Y-1840992D01*
X-210718Y-1841804D01*
X-217932Y-1843989D01*
X-224637Y-1847545D01*
X-230835Y-1852675D01*
X-262128Y-1883968D01*
X-267258Y-1890166D01*
X-270814Y-1896872D01*
X-272999Y-1903933D01*
X-274370Y-1906828D01*
X-276606Y-1909114D01*
X-279450Y-1910638D01*
X-286359Y-1912924D01*
X-291185Y-1915972D01*
X-295300Y-1920087D01*
X-298399Y-1924964D01*
X-300278Y-1930450D01*
X-300990Y-1936750D01*
X-300990Y-2025650D01*
X-300278Y-2031949D01*
X-298399Y-2037435D01*
X-295300Y-2042312D01*
X-291185Y-2046427D01*
X-286308Y-2049475D01*
X-280822Y-2051405D01*
X-274523Y-2052116D01*
X-195681Y-2052116D01*
X-189534Y-2051405D01*
X-185369Y-2051812D01*
X-181711Y-2053894D01*
X-179171Y-2057247D01*
X-178257Y-2061362D01*
X-179070Y-2065528D01*
X-181508Y-2068931D01*
X-212750Y-2098090D01*
X-215950Y-2100072D01*
X-219710Y-2100783D01*
X-274523Y-2100783D01*
X-280822Y-2101494D01*
X-286308Y-2103424D01*
X-291185Y-2106472D01*
X-295300Y-2110587D01*
X-298399Y-2115464D01*
X-300278Y-2120950D01*
X-300990Y-2127250D01*
X-300990Y-2216150D01*
X-300278Y-2222449D01*
X-298399Y-2227935D01*
X-295300Y-2232812D01*
X-291185Y-2236927D01*
X-286308Y-2239975D01*
X-280822Y-2241905D01*
X-274523Y-2242616D01*
X-195681Y-2242616D01*
X-189331Y-2241905D01*
X-183896Y-2239975D01*
X-178968Y-2236927D01*
X-174904Y-2232812D01*
X-173685Y-2230932D01*
X-170891Y-2227986D01*
X-167132Y-2226360D01*
X-163068Y-2226360D01*
X-159308Y-2227986D01*
X-156514Y-2230932D01*
X-155295Y-2232812D01*
X-151231Y-2236927D01*
X-146304Y-2239975D01*
X-140868Y-2241905D01*
X-134518Y-2242616D01*
X-55676Y-2242616D01*
X-49377Y-2241905D01*
X-43891Y-2239975D01*
X-39014Y-2236927D01*
X-34899Y-2232812D01*
X-31800Y-2227935D01*
X-29921Y-2222449D01*
X-29159Y-2215540D01*
X-28295Y-2212441D01*
X-26517Y-2209800D01*
X-23977Y-2207818D01*
X-16713Y-2203805D01*
X-10464Y-2198624D01*
X19151Y-2169058D01*
X22809Y-2166721D01*
X27127Y-2166112D01*
X31292Y-2167382D01*
X34544Y-2170277D01*
X36271Y-2174240D01*
X38658Y-2186076D01*
X43027Y-2199030D01*
X49072Y-2211324D01*
X56692Y-2222703D01*
X65735Y-2232964D01*
X75996Y-2242007D01*
X87376Y-2249627D01*
X95300Y-2253538D01*
X98806Y-2256383D01*
X100736Y-2260447D01*
X100736Y-2264918D01*
X98755Y-2268982D01*
X95199Y-2271776D01*
X90830Y-2272792D01*
G37*

%LPC*%
G36*
X-228600Y-1313637D02*
G01*
X-218795Y-1312773D01*
X-209346Y-1310233D01*
X-200406Y-1306118D01*
X-192379Y-1300480D01*
X-185420Y-1293520D01*
X-179781Y-1285494D01*
X-175666Y-1276553D01*
X-173126Y-1267104D01*
X-172262Y-1257300D01*
X-173126Y-1247495D01*
X-175666Y-1238046D01*
X-179781Y-1229106D01*
X-185420Y-1221079D01*
X-186994Y-1219504D01*
X-189230Y-1216202D01*
X-189992Y-1212291D01*
X-189992Y-1179779D01*
X-189331Y-1176172D01*
X-187401Y-1173022D01*
X-184505Y-1170736D01*
X-179628Y-1169568D01*
X-174193Y-1167638D01*
X-169265Y-1164539D01*
X-165201Y-1160475D01*
X-162102Y-1155547D01*
X-160223Y-1150112D01*
X-159512Y-1143762D01*
X-159512Y-1064260D01*
X-160223Y-1057960D01*
X-162102Y-1052474D01*
X-165201Y-1047597D01*
X-169265Y-1043482D01*
X-174193Y-1040434D01*
X-180238Y-1038301D01*
X-183794Y-1036167D01*
X-186232Y-1032764D01*
X-187045Y-1028700D01*
X-186232Y-1024636D01*
X-183794Y-1021232D01*
X-180238Y-1019098D01*
X-174193Y-1016965D01*
X-169265Y-1013917D01*
X-165201Y-1009802D01*
X-162102Y-1004925D01*
X-160223Y-999439D01*
X-159512Y-993140D01*
X-159512Y-935634D01*
X-158699Y-931773D01*
X-156514Y-928471D01*
X-153212Y-926236D01*
X-149352Y-925474D01*
X-145440Y-926236D01*
X-142138Y-928471D01*
X-46939Y-1023670D01*
X-44551Y-1027430D01*
X-43992Y-1031849D01*
X-44958Y-1041501D01*
X-44958Y-1179372D01*
X-44196Y-1187754D01*
X-42011Y-1195374D01*
X-38455Y-1202486D01*
X-33680Y-1208836D01*
X-27838Y-1214170D01*
X-21082Y-1218336D01*
X-13665Y-1221232D01*
X-5892Y-1222654D01*
X2082Y-1222654D01*
X9855Y-1221232D01*
X17221Y-1218336D01*
X25146Y-1213307D01*
X28702Y-1211935D01*
X32512Y-1211935D01*
X36017Y-1213307D01*
X43992Y-1218336D01*
X51308Y-1221232D01*
X59131Y-1222654D01*
X67056Y-1222654D01*
X74879Y-1221232D01*
X82245Y-1218336D01*
X90170Y-1213307D01*
X93675Y-1211935D01*
X97485Y-1211935D01*
X101041Y-1213307D01*
X108966Y-1218336D01*
X116332Y-1221232D01*
X124155Y-1222654D01*
X132080Y-1222654D01*
X139852Y-1221232D01*
X147218Y-1218336D01*
X155143Y-1213307D01*
X158699Y-1211935D01*
X162509Y-1211935D01*
X166014Y-1213307D01*
X173990Y-1218336D01*
X181305Y-1221232D01*
X189128Y-1222654D01*
X197053Y-1222654D01*
X204876Y-1221232D01*
X212242Y-1218336D01*
X220167Y-1213307D01*
X223723Y-1211935D01*
X227482Y-1211935D01*
X231038Y-1213307D01*
X238963Y-1218336D01*
X246329Y-1221232D01*
X254152Y-1222654D01*
X262077Y-1222654D01*
X269849Y-1221232D01*
X277215Y-1218336D01*
X285140Y-1213307D01*
X288696Y-1211935D01*
X292506Y-1211935D01*
X296062Y-1213307D01*
X303987Y-1218336D01*
X311353Y-1221232D01*
X319125Y-1222654D01*
X327050Y-1222654D01*
X334873Y-1221232D01*
X342239Y-1218336D01*
X350164Y-1213307D01*
X353720Y-1211935D01*
X357479Y-1211935D01*
X361035Y-1213307D01*
X368960Y-1218336D01*
X376326Y-1221232D01*
X384149Y-1222654D01*
X392074Y-1222654D01*
X399846Y-1221232D01*
X407263Y-1218336D01*
X414020Y-1214170D01*
X419912Y-1208836D01*
X424688Y-1202486D01*
X428193Y-1195374D01*
X430377Y-1187754D01*
X431139Y-1179372D01*
X431139Y-1041450D01*
X430377Y-1033068D01*
X428193Y-1025448D01*
X424688Y-1018336D01*
X419912Y-1011986D01*
X414020Y-1006652D01*
X407263Y-1002487D01*
X399846Y-999591D01*
X392074Y-998169D01*
X384149Y-998169D01*
X375920Y-999693D01*
X371652Y-999591D01*
X367792Y-997712D01*
X365048Y-994460D01*
X363931Y-990346D01*
X364540Y-986129D01*
X366877Y-982522D01*
X373380Y-976020D01*
X379018Y-967994D01*
X383133Y-959053D01*
X385673Y-949604D01*
X386537Y-939800D01*
X385673Y-929995D01*
X383133Y-920546D01*
X379018Y-911606D01*
X373380Y-903579D01*
X366420Y-896619D01*
X358394Y-890981D01*
X349453Y-886866D01*
X340004Y-884326D01*
X330200Y-883462D01*
X320395Y-884326D01*
X310896Y-886866D01*
X306984Y-887679D01*
X303072Y-886968D01*
X299720Y-884783D01*
X297484Y-881481D01*
X296672Y-877519D01*
X296672Y-732028D01*
X297434Y-728218D01*
X299567Y-724966D01*
X302768Y-722731D01*
X306527Y-721868D01*
X310388Y-722528D01*
X313690Y-724509D01*
X324561Y-734415D01*
X336194Y-742543D01*
X348792Y-749096D01*
X362153Y-754024D01*
X376021Y-757174D01*
X390144Y-758545D01*
X404368Y-758088D01*
X418388Y-755802D01*
X432003Y-751789D01*
X445008Y-745998D01*
X457149Y-738632D01*
X468274Y-729792D01*
X478129Y-719582D01*
X486613Y-708202D01*
X493623Y-695807D01*
X498957Y-682650D01*
X502564Y-668883D01*
X504342Y-654812D01*
X504342Y-640588D01*
X502564Y-626516D01*
X498957Y-612749D01*
X493623Y-599592D01*
X486613Y-587197D01*
X478129Y-575818D01*
X468274Y-565607D01*
X457149Y-556768D01*
X445008Y-549402D01*
X432003Y-543661D01*
X418388Y-539597D01*
X404368Y-537311D01*
X390144Y-536854D01*
X376021Y-538226D01*
X362153Y-541375D01*
X348792Y-546303D01*
X336194Y-552856D01*
X324561Y-560984D01*
X313690Y-570890D01*
X310388Y-572871D01*
X306527Y-573532D01*
X302768Y-572668D01*
X299567Y-570433D01*
X297434Y-567182D01*
X296672Y-563372D01*
X296672Y-549503D01*
X297484Y-545642D01*
X299669Y-542340D01*
X342798Y-499160D01*
X345998Y-497027D01*
X349758Y-496214D01*
X353517Y-496824D01*
X362153Y-500024D01*
X376021Y-503174D01*
X390144Y-504545D01*
X404368Y-504088D01*
X418388Y-501802D01*
X432003Y-497789D01*
X445008Y-491998D01*
X457149Y-484632D01*
X468274Y-475792D01*
X478129Y-465582D01*
X486613Y-454202D01*
X493623Y-441807D01*
X498957Y-428650D01*
X502564Y-414883D01*
X504342Y-400812D01*
X504342Y-386588D01*
X502564Y-372516D01*
X498957Y-358749D01*
X493623Y-345592D01*
X486613Y-333197D01*
X478129Y-321818D01*
X468274Y-311607D01*
X457149Y-302768D01*
X445008Y-295402D01*
X432003Y-289661D01*
X418388Y-285597D01*
X404368Y-283311D01*
X390144Y-282854D01*
X376021Y-284226D01*
X362153Y-287375D01*
X348792Y-292303D01*
X336194Y-298856D01*
X324561Y-306984D01*
X314045Y-316534D01*
X304850Y-327355D01*
X297078Y-339293D01*
X290931Y-352094D01*
X286461Y-365556D01*
X283718Y-379526D01*
X282803Y-393700D01*
X283718Y-407873D01*
X286461Y-421843D01*
X290576Y-434289D01*
X291084Y-437997D01*
X290220Y-441604D01*
X288137Y-444703D01*
X231140Y-501650D01*
X226009Y-507898D01*
X222453Y-514553D01*
X220268Y-521766D01*
X219456Y-529793D01*
X219456Y-548690D01*
X218592Y-552856D01*
X216052Y-556310D01*
X212293Y-558393D01*
X208076Y-558749D01*
X204012Y-557377D01*
X190957Y-549402D01*
X178003Y-543661D01*
X164388Y-539597D01*
X150368Y-537311D01*
X136144Y-536854D01*
X122021Y-538226D01*
X108153Y-541375D01*
X94792Y-546303D01*
X82194Y-552856D01*
X70561Y-560984D01*
X68275Y-563067D01*
X64973Y-565099D01*
X61163Y-565708D01*
X57353Y-564845D01*
X54152Y-562610D01*
X52069Y-559358D01*
X51308Y-555548D01*
X51308Y-540918D01*
X52069Y-537006D01*
X54305Y-533704D01*
X88798Y-499160D01*
X91998Y-497027D01*
X95758Y-496214D01*
X99517Y-496824D01*
X108153Y-500024D01*
X122021Y-503174D01*
X136144Y-504545D01*
X150368Y-504088D01*
X164388Y-501802D01*
X178003Y-497789D01*
X191008Y-491998D01*
X203149Y-484632D01*
X214274Y-475792D01*
X224129Y-465582D01*
X232613Y-454202D01*
X239623Y-441807D01*
X244957Y-428650D01*
X248564Y-414883D01*
X250342Y-400812D01*
X250342Y-386588D01*
X248564Y-372516D01*
X244957Y-358749D01*
X239623Y-345592D01*
X232613Y-333197D01*
X224129Y-321818D01*
X214274Y-311607D01*
X203149Y-302768D01*
X191008Y-295402D01*
X178003Y-289661D01*
X164388Y-285597D01*
X150368Y-283311D01*
X136144Y-282854D01*
X122021Y-284226D01*
X108153Y-287375D01*
X94792Y-292303D01*
X82194Y-298856D01*
X70561Y-306984D01*
X60045Y-316534D01*
X50850Y-327355D01*
X43078Y-339293D01*
X36931Y-352094D01*
X32461Y-365556D01*
X29718Y-379526D01*
X28803Y-393700D01*
X29718Y-407873D01*
X32461Y-421843D01*
X36576Y-434289D01*
X37084Y-437997D01*
X36220Y-441604D01*
X34137Y-444703D01*
X-14224Y-493064D01*
X-19354Y-499262D01*
X-22910Y-505968D01*
X-25095Y-513181D01*
X-25908Y-521208D01*
X-25908Y-555548D01*
X-26619Y-559257D01*
X-28600Y-562457D01*
X-31648Y-564692D01*
X-35306Y-565708D01*
X-39065Y-565251D01*
X-42418Y-563473D01*
X-50850Y-556768D01*
X-62991Y-549402D01*
X-75996Y-543661D01*
X-89611Y-539597D01*
X-103632Y-537311D01*
X-117856Y-536854D01*
X-131978Y-538226D01*
X-145846Y-541375D01*
X-159207Y-546303D01*
X-171805Y-552856D01*
X-183438Y-560984D01*
X-193954Y-570534D01*
X-197510Y-574700D01*
X-200710Y-577240D01*
X-204673Y-578256D01*
X-208737Y-577646D01*
X-212242Y-575513D01*
X-214579Y-572160D01*
X-215392Y-568147D01*
X-215392Y-553618D01*
X-214629Y-549706D01*
X-212394Y-546404D01*
X-165201Y-499160D01*
X-162001Y-497027D01*
X-158242Y-496214D01*
X-154482Y-496824D01*
X-145846Y-500024D01*
X-131978Y-503174D01*
X-117856Y-504545D01*
X-103632Y-504088D01*
X-89611Y-501802D01*
X-75996Y-497789D01*
X-62991Y-491998D01*
X-50850Y-484632D01*
X-39725Y-475792D01*
X-29870Y-465582D01*
X-21386Y-454202D01*
X-14376Y-441807D01*
X-9042Y-428650D01*
X-5435Y-414883D01*
X-3657Y-400812D01*
X-3657Y-386588D01*
X-5435Y-372516D01*
X-9042Y-358749D01*
X-14376Y-345592D01*
X-21386Y-333197D01*
X-29870Y-321818D01*
X-39725Y-311607D01*
X-50850Y-302768D01*
X-62991Y-295402D01*
X-75996Y-289661D01*
X-89611Y-285597D01*
X-103632Y-283311D01*
X-117856Y-282854D01*
X-131978Y-284226D01*
X-145846Y-287375D01*
X-159207Y-292303D01*
X-171805Y-298856D01*
X-183438Y-306984D01*
X-193954Y-316534D01*
X-203149Y-327355D01*
X-210921Y-339293D01*
X-217068Y-352094D01*
X-221538Y-365556D01*
X-224282Y-379526D01*
X-225196Y-393700D01*
X-224282Y-407873D01*
X-221538Y-421843D01*
X-217424Y-434289D01*
X-216916Y-437997D01*
X-217779Y-441604D01*
X-219862Y-444703D01*
X-280924Y-505764D01*
X-286054Y-511962D01*
X-289610Y-518668D01*
X-291795Y-525881D01*
X-292608Y-533908D01*
X-292608Y-697992D01*
X-291795Y-706018D01*
X-289610Y-713232D01*
X-286054Y-719937D01*
X-280924Y-726135D01*
X-231902Y-775208D01*
X-229514Y-778916D01*
X-228955Y-783285D01*
X-230276Y-787450D01*
X-233273Y-790702D01*
X-239420Y-795020D01*
X-246379Y-801979D01*
X-252018Y-810006D01*
X-256133Y-818946D01*
X-258673Y-828395D01*
X-259537Y-838200D01*
X-258673Y-848004D01*
X-256133Y-857453D01*
X-252018Y-866394D01*
X-248666Y-871169D01*
X-246989Y-875233D01*
X-247142Y-879602D01*
X-249174Y-883513D01*
X-252679Y-886206D01*
X-256997Y-887120D01*
X-271221Y-887120D01*
X-277571Y-887831D01*
X-283006Y-889762D01*
X-287934Y-892860D01*
X-291998Y-896924D01*
X-295097Y-901852D01*
X-296976Y-907287D01*
X-297688Y-913637D01*
X-297688Y-993140D01*
X-296976Y-999439D01*
X-295097Y-1004925D01*
X-291998Y-1009802D01*
X-287934Y-1013917D01*
X-283006Y-1016965D01*
X-276961Y-1019098D01*
X-273405Y-1021232D01*
X-270967Y-1024636D01*
X-270154Y-1028700D01*
X-270967Y-1032764D01*
X-273405Y-1036167D01*
X-276961Y-1038301D01*
X-283006Y-1040434D01*
X-287934Y-1043482D01*
X-291998Y-1047597D01*
X-295097Y-1052474D01*
X-296976Y-1057960D01*
X-297688Y-1064260D01*
X-297688Y-1143762D01*
X-296976Y-1150112D01*
X-295097Y-1155547D01*
X-291998Y-1160475D01*
X-287934Y-1164539D01*
X-283006Y-1167638D01*
X-277571Y-1169568D01*
X-272694Y-1170736D01*
X-269798Y-1173022D01*
X-267868Y-1176172D01*
X-267208Y-1179779D01*
X-267208Y-1212291D01*
X-267970Y-1216202D01*
X-270205Y-1219504D01*
X-271780Y-1221079D01*
X-277418Y-1229106D01*
X-281533Y-1238046D01*
X-284073Y-1247495D01*
X-284937Y-1257300D01*
X-284073Y-1267104D01*
X-281533Y-1276553D01*
X-277418Y-1285494D01*
X-271780Y-1293520D01*
X-264820Y-1300480D01*
X-256794Y-1306118D01*
X-247853Y-1310233D01*
X-238404Y-1312773D01*
G37*
G36*
X514146Y-1222654D02*
G01*
X522071Y-1222654D01*
X529894Y-1221232D01*
X537210Y-1218336D01*
X545185Y-1213307D01*
X548690Y-1211935D01*
X552500Y-1211935D01*
X556056Y-1213307D01*
X563981Y-1218336D01*
X571347Y-1221232D01*
X579120Y-1222654D01*
X587044Y-1222654D01*
X594868Y-1221232D01*
X602234Y-1218336D01*
X610158Y-1213307D01*
X613714Y-1211935D01*
X617524Y-1211935D01*
X621030Y-1213307D01*
X628954Y-1218336D01*
X636320Y-1221232D01*
X644144Y-1222654D01*
X652068Y-1222654D01*
X659892Y-1221232D01*
X667207Y-1218336D01*
X675182Y-1213307D01*
X678688Y-1211935D01*
X682498Y-1211935D01*
X686054Y-1213307D01*
X693978Y-1218336D01*
X701344Y-1221232D01*
X709117Y-1222654D01*
X717092Y-1222654D01*
X724865Y-1221232D01*
X732231Y-1218336D01*
X740156Y-1213307D01*
X743712Y-1211935D01*
X747522Y-1211935D01*
X751027Y-1213307D01*
X758952Y-1218336D01*
X766318Y-1221232D01*
X774141Y-1222654D01*
X782066Y-1222654D01*
X789889Y-1221232D01*
X797255Y-1218336D01*
X804011Y-1214170D01*
X809904Y-1208836D01*
X814679Y-1202486D01*
X818235Y-1195374D01*
X820369Y-1187754D01*
X821182Y-1179372D01*
X821182Y-1159459D01*
X821944Y-1155598D01*
X824128Y-1152296D01*
X827430Y-1150061D01*
X831342Y-1149299D01*
X878382Y-1149299D01*
X881735Y-1149858D01*
X884732Y-1151534D01*
X887272Y-1154531D01*
X891387Y-1158595D01*
X896264Y-1161694D01*
X901750Y-1163624D01*
X908050Y-1164336D01*
X996950Y-1164336D01*
X1003249Y-1163624D01*
X1008735Y-1161694D01*
X1013612Y-1158595D01*
X1020267Y-1151534D01*
X1023264Y-1149858D01*
X1026617Y-1149299D01*
X1238199Y-1149299D01*
X1242822Y-1149096D01*
X1247241Y-1148537D01*
X1251559Y-1147572D01*
X1255826Y-1146200D01*
X1259890Y-1144524D01*
X1263853Y-1142492D01*
X1267612Y-1140104D01*
X1271117Y-1137361D01*
X1274572Y-1134211D01*
X1330401Y-1078433D01*
X1333550Y-1074978D01*
X1336243Y-1071473D01*
X1338529Y-1067866D01*
X1341374Y-1061872D01*
X1342948Y-1059535D01*
X1345133Y-1057656D01*
X1350975Y-1053998D01*
X1355039Y-1049934D01*
X1358138Y-1045006D01*
X1360068Y-1039571D01*
X1360779Y-1033221D01*
X1360779Y-947978D01*
X1360068Y-941628D01*
X1358138Y-936193D01*
X1355039Y-931265D01*
X1347673Y-924458D01*
X1345996Y-921461D01*
X1345438Y-918108D01*
X1345438Y-897991D01*
X1345996Y-894638D01*
X1347673Y-891641D01*
X1350975Y-888898D01*
X1355039Y-884834D01*
X1358138Y-879906D01*
X1360068Y-874471D01*
X1360779Y-868121D01*
X1360779Y-782878D01*
X1360068Y-776528D01*
X1358138Y-771093D01*
X1355039Y-766165D01*
X1347673Y-759358D01*
X1345996Y-756361D01*
X1345438Y-753008D01*
X1345438Y-720191D01*
X1345996Y-716838D01*
X1347673Y-713841D01*
X1350975Y-711098D01*
X1355039Y-707034D01*
X1358138Y-702106D01*
X1360068Y-696671D01*
X1360779Y-690321D01*
X1360779Y-605078D01*
X1360068Y-598728D01*
X1358138Y-593293D01*
X1355039Y-588365D01*
X1348486Y-582066D01*
X1346860Y-579221D01*
X1346250Y-575970D01*
X1346047Y-566420D01*
X1345641Y-563270D01*
X1344422Y-557784D01*
X1343456Y-554685D01*
X1341323Y-549503D01*
X1339799Y-546557D01*
X1336700Y-541731D01*
X1309776Y-503986D01*
X1307236Y-500735D01*
X1303883Y-497078D01*
X1300988Y-494436D01*
X1297025Y-491439D01*
X1293723Y-489356D01*
X1289304Y-487070D01*
X1285697Y-485597D01*
X1280922Y-484124D01*
X1277112Y-483260D01*
X1272184Y-482650D01*
X1268018Y-482498D01*
X1016203Y-482498D01*
X1011580Y-482701D01*
X1007160Y-483260D01*
X1002842Y-484225D01*
X998575Y-485546D01*
X994511Y-487273D01*
X990549Y-489305D01*
X986790Y-491693D01*
X983284Y-494385D01*
X979830Y-497535D01*
X939495Y-537921D01*
X936498Y-540004D01*
X932992Y-540867D01*
X929386Y-540512D01*
X926388Y-539597D01*
X912368Y-537311D01*
X898144Y-536854D01*
X884021Y-538226D01*
X870153Y-541375D01*
X856792Y-546303D01*
X844194Y-552856D01*
X832561Y-560984D01*
X822045Y-570534D01*
X812850Y-581355D01*
X805078Y-593293D01*
X798931Y-606094D01*
X794461Y-619556D01*
X791718Y-633526D01*
X790803Y-647700D01*
X791718Y-661873D01*
X794461Y-675843D01*
X798931Y-689305D01*
X805078Y-702106D01*
X812850Y-714044D01*
X822045Y-724865D01*
X832561Y-734364D01*
X844956Y-743000D01*
X847852Y-746099D01*
X849223Y-750112D01*
X848817Y-754380D01*
X846734Y-758088D01*
X843280Y-760577D01*
X839114Y-761492D01*
X610108Y-761492D01*
X602081Y-762304D01*
X594868Y-764489D01*
X588162Y-768045D01*
X581964Y-773176D01*
X531876Y-823264D01*
X526745Y-829462D01*
X523189Y-836168D01*
X521004Y-843381D01*
X520192Y-851408D01*
X520192Y-871423D01*
X519684Y-874623D01*
X518159Y-877468D01*
X515874Y-879754D01*
X509879Y-883919D01*
X502920Y-890879D01*
X497281Y-898906D01*
X493166Y-907846D01*
X490626Y-917295D01*
X489762Y-927100D01*
X490626Y-936904D01*
X493166Y-946353D01*
X497281Y-955294D01*
X502920Y-963320D01*
X509879Y-970280D01*
X517906Y-975918D01*
X524103Y-978763D01*
X527253Y-981100D01*
X529336Y-984402D01*
X529996Y-988263D01*
X529132Y-992073D01*
X526897Y-995273D01*
X523646Y-997407D01*
X519836Y-998169D01*
X514146Y-998169D01*
X506323Y-999591D01*
X498906Y-1002487D01*
X492201Y-1006652D01*
X486308Y-1011986D01*
X481533Y-1018336D01*
X477977Y-1025448D01*
X475792Y-1033068D01*
X475030Y-1041450D01*
X475030Y-1179372D01*
X475792Y-1187754D01*
X477977Y-1195374D01*
X481533Y-1202486D01*
X486308Y-1208836D01*
X492201Y-1214170D01*
X498906Y-1218336D01*
X506323Y-1221232D01*
G37*
G36*
X644144Y-504545D02*
G01*
X658368Y-504088D01*
X672388Y-501802D01*
X686003Y-497789D01*
X699008Y-491998D01*
X711149Y-484632D01*
X722274Y-475792D01*
X732129Y-465582D01*
X740613Y-454202D01*
X747623Y-441807D01*
X752957Y-428650D01*
X756564Y-414883D01*
X758342Y-400812D01*
X758342Y-386588D01*
X756564Y-372516D01*
X752957Y-358749D01*
X747623Y-345592D01*
X740613Y-333197D01*
X732129Y-321818D01*
X722274Y-311607D01*
X711149Y-302768D01*
X699008Y-295402D01*
X686003Y-289661D01*
X672388Y-285597D01*
X658368Y-283311D01*
X644144Y-282854D01*
X630021Y-284226D01*
X616153Y-287375D01*
X602792Y-292303D01*
X590194Y-298856D01*
X578561Y-306984D01*
X568045Y-316534D01*
X558850Y-327355D01*
X551078Y-339293D01*
X544931Y-352094D01*
X540461Y-365556D01*
X537718Y-379526D01*
X536803Y-393700D01*
X537718Y-407873D01*
X540461Y-421843D01*
X544931Y-435305D01*
X551078Y-448106D01*
X558850Y-460044D01*
X568045Y-470865D01*
X578561Y-480415D01*
X590194Y-488543D01*
X602792Y-495096D01*
X616153Y-500024D01*
X630021Y-503174D01*
G37*

%LPD*%
G36*
X79298Y-947623D02*
G01*
X75438Y-946861D01*
X71831Y-944321D01*
X69799Y-941425D01*
X68884Y-938021D01*
X68173Y-929995D01*
X65633Y-920546D01*
X61518Y-911606D01*
X55880Y-903579D01*
X48920Y-896619D01*
X40894Y-890981D01*
X31953Y-886866D01*
X22504Y-884326D01*
X12700Y-883462D01*
X2895Y-884326D01*
X-6553Y-886866D01*
X-15494Y-890981D01*
X-23520Y-896619D01*
X-30480Y-903579D01*
X-34798Y-909726D01*
X-38049Y-912723D01*
X-42214Y-914044D01*
X-46583Y-913485D01*
X-50292Y-911098D01*
X-85394Y-875995D01*
X-87630Y-872693D01*
X-88392Y-868781D01*
X-88392Y-826008D01*
X-89204Y-817981D01*
X-91389Y-810768D01*
X-94945Y-804062D01*
X-100076Y-797864D01*
X-122123Y-775766D01*
X-124307Y-772515D01*
X-125069Y-768705D01*
X-124358Y-764844D01*
X-122275Y-761593D01*
X-119075Y-759307D01*
X-115265Y-758444D01*
X-103632Y-758088D01*
X-89611Y-755802D01*
X-75996Y-751789D01*
X-62991Y-745998D01*
X-50850Y-738632D01*
X-42418Y-731926D01*
X-39065Y-730148D01*
X-35306Y-729691D01*
X-31648Y-730707D01*
X-28600Y-732942D01*
X-26619Y-736142D01*
X-25908Y-739851D01*
X-25908Y-761492D01*
X-25095Y-769518D01*
X-22910Y-776732D01*
X-19354Y-783437D01*
X-14224Y-789635D01*
X86512Y-890422D01*
X88696Y-893724D01*
X89509Y-897585D01*
X89509Y-937463D01*
X88696Y-941324D01*
X86512Y-944626D01*
X83210Y-946861D01*
G37*

%LPD*%
G36*
X114300Y-1587500D02*
G01*
X101600Y-1600200D01*
X101600Y-1803400D01*
X63500Y-1841500D01*
X63500Y-1968500D01*
X88900Y-2006600D01*
X215900Y-2006600D01*
X241300Y-1981200D01*
X241300Y-1892300D01*
X152400Y-1790700D01*
X152400Y-1600200D01*
X139700Y-1587500D01*
G37*
G36*
X1562100Y-1143000D02*
G01*
X1485900Y-1193800D01*
X1473200Y-1447800D01*
X1435100Y-1498600D01*
X1270000Y-1498600D01*
X1231900Y-1397000D01*
X1054100Y-1397000D01*
X1003300Y-1511300D01*
X876300Y-1765300D01*
X838200Y-1803400D01*
X635000Y-1803400D01*
X609600Y-1778000D01*
X609600Y-1600200D01*
X596900Y-1587500D01*
X571500Y-1587500D01*
X558800Y-1600200D01*
X558800Y-1892300D01*
X622300Y-1955800D01*
X774700Y-1955800D01*
X863600Y-2006600D01*
X1193800Y-2006600D01*
X1282700Y-1917700D01*
X1282700Y-1727200D01*
X1651000Y-1574800D01*
X1714500Y-1397000D01*
X1752600Y-1358900D01*
X1752600Y-1168400D01*
X1676400Y-1143000D01*
G37*
D10*
X1294638Y-990600D02*
G01*
X1294638Y-1042162D01*
X1238504Y-1098295D01*
X1183386Y-1098295D01*
X952500Y-1098295D01*
X193040Y-1683512D02*
G01*
X193040Y-1767839D01*
X292100Y-1866900D01*
X292100Y-2006600D01*
X139700Y-2159000D01*
X453136Y-1683512D02*
G01*
X453136Y-1926336D01*
X647700Y-2120900D01*
X647700Y-2159000D01*
D11*
X-203200Y-838200D02*
G01*
X-203200Y-952500D01*
X-228600Y-952500D01*
D10*
X901700Y-647700D02*
G01*
X1016000Y-533400D01*
X1268222Y-533400D01*
X1295400Y-571500D01*
X1294638Y-647700D01*
D11*
X546100Y-927100D02*
G01*
X558800Y-914400D01*
X558800Y-850900D01*
X609600Y-800100D01*
X990600Y-800100D01*
X1054100Y-736600D01*
X1054100Y-685800D01*
X1079500Y-647700D01*
X1143863Y-647700D01*
X800100Y-939800D02*
G01*
X1028700Y-939800D01*
X1079500Y-990600D01*
X1143761Y-990600D01*
D10*
X388111Y-1683512D02*
G01*
X388111Y-1962912D01*
X393700Y-2159000D01*
D11*
X190500Y-939800D02*
G01*
X193093Y-942393D01*
X193093Y-1110437D01*
X-228600Y-1257300D02*
G01*
X-228600Y-1104036D01*
X-114300Y-393700D02*
G01*
X-254000Y-533400D01*
X-254000Y-698500D01*
X-127000Y-825500D01*
X-127000Y-889000D01*
X-1904Y-1014095D01*
X-1904Y-1110437D01*
X139700Y-393700D02*
G01*
X12700Y-520700D01*
X12700Y-762000D01*
X128092Y-877392D01*
X128092Y-1110437D01*
X393700Y-393700D02*
G01*
X258089Y-529310D01*
X258089Y-1110437D01*
D10*
X952500Y-1098397D02*
G01*
X778101Y-1098397D01*
X777999Y-1098295D01*
X1294536Y-825500D02*
G01*
X1294536Y-990600D01*
X1294531Y-990600D01*
X1294536Y-647700D02*
G01*
X1294536Y-825500D01*
X1294531Y-825500D01*
D11*
X800100Y-939800D02*
G01*
X762000Y-939800D01*
X713234Y-988565D01*
X713234Y-1110487D01*
X1143863Y-825500D02*
G01*
X1118463Y-850900D01*
X723900Y-850900D01*
X647700Y-927100D01*
X546100Y-927100D02*
G01*
X583184Y-964184D01*
X583184Y-1110487D01*
X648208Y-1110487D02*
G01*
X647700Y-1109979D01*
X647700Y-927100D01*
X63093Y-1110437D02*
G01*
X63093Y-990193D01*
X12700Y-939800D01*
X330200Y-939800D02*
G01*
X323118Y-946881D01*
X323118Y-1110437D01*
X101600Y-1968500D02*
G01*
X101600Y-2032000D01*
X-38100Y-2171700D01*
X-95097Y-2171700D01*
X-1904Y-1683588D02*
G01*
X0Y-1783511D01*
X-12700Y-1796211D01*
X-12700Y-1854200D01*
X-95097Y-1936597D01*
X-95097Y-1981200D01*
X1143000Y-1283462D02*
G01*
X1219961Y-1283462D01*
X1333500Y-1397000D01*
X1333500Y-1418589D01*
X-66802Y-1683512D02*
G01*
X-63500Y-1687068D01*
X-63500Y-1790700D01*
X-152400Y-1879600D01*
X-203200Y-1879600D01*
X-235204Y-1911604D01*
X-235204Y-1981200D01*
X-235204Y-2171700D02*
G01*
X-139700Y-2082800D01*
X-38100Y-2082800D01*
X35560Y-2009139D01*
X35560Y-1803400D01*
X62991Y-1775968D01*
X62991Y-1683512D01*
D12*
G01*
X1333500Y-1418589D03*
G01*
X1333500Y-1248410D03*
D13*
G01*
X1143000Y-1283575D03*
D14*
G01*
X1143000Y-1434236D03*
D15*
G01*
X1028395Y-1879600D03*
G01*
X1562404Y-1879600D03*
D16*
G01*
X1143875Y-647700D03*
G01*
X1294524Y-647700D03*
G01*
X1143875Y-825500D03*
G01*
X1294524Y-825500D03*
G01*
X1143875Y-990600D03*
G01*
X1294524Y-990600D03*
D13*
G01*
X-228600Y-1104024D03*
D14*
G01*
X-228600Y-953363D03*
D17*
G01*
X-235102Y-1981200D03*
G01*
X-95097Y-1981200D03*
G01*
X-235102Y-2171700D03*
G01*
X-95097Y-2171700D03*
D18*
G01*
X952500Y-1098397D03*
G01*
X952500Y-1238402D03*
D19*
G01*
X-66903Y-1683588D03*
G01*
X-1904Y-1683588D03*
G01*
X63093Y-1683588D03*
G01*
X128092Y-1683588D03*
G01*
X193090Y-1683588D03*
G01*
X258089Y-1683588D03*
G01*
X323113Y-1683588D03*
G01*
X388111Y-1683588D03*
G01*
X453110Y-1683588D03*
G01*
X518109Y-1683588D03*
G01*
X583107Y-1683588D03*
G01*
X648106Y-1683588D03*
G01*
X713104Y-1683588D03*
G01*
X778103Y-1683588D03*
G01*
X-66903Y-1110437D03*
G01*
X-1904Y-1110437D03*
G01*
X63093Y-1110437D03*
G01*
X128092Y-1110437D03*
G01*
X193090Y-1110437D03*
G01*
X258089Y-1110437D03*
G01*
X323113Y-1110437D03*
G01*
X388111Y-1110437D03*
G01*
X453110Y-1110437D03*
G01*
X518109Y-1110437D03*
G01*
X583107Y-1110437D03*
G01*
X648106Y-1110437D03*
G01*
X713104Y-1110437D03*
G01*
X778103Y-1110437D03*
D20*
G01*
X355600Y-1396987D03*
D21*
G01*
X-114300Y-647700D03*
G01*
X-114300Y-393700D03*
G01*
X139700Y-647700D03*
G01*
X139700Y-393700D03*
G01*
X393700Y-647700D03*
G01*
X393700Y-393700D03*
G01*
X647700Y-647700D03*
G01*
X647700Y-393700D03*
G01*
X901700Y-647700D03*
D22*
G01*
X901700Y-393700D03*
G01*
X139700Y-2159000D03*
G01*
X393700Y-2159000D03*
D23*
G01*
X647700Y-2159000D03*
D24*
G01*
X1625600Y-774700D03*
G01*
X1625600Y-1270000D03*
D25*
G01*
X1816100Y-2120900D03*
G01*
X-444500Y-368300D03*
G01*
X-444500Y-2133600D03*
G01*
X1816100Y-381000D03*
D22*
G01*
X1155700Y-393700D03*
D26*
G01*
X205613Y-1447012D03*
G01*
X205613Y-1347012D03*
G01*
X305612Y-1447012D03*
G01*
X305612Y-1347012D03*
G01*
X405612Y-1447012D03*
G01*
X405612Y-1347012D03*
G01*
X505612Y-1447012D03*
G01*
X505612Y-1347012D03*
D27*
G01*
X139700Y-1841500D03*
G01*
X101600Y-1968500D03*
G01*
X190500Y-1892300D03*
G01*
X749300Y-1841500D03*
G01*
X749300Y-1905000D03*
G01*
X647700Y-1841500D03*
G01*
X647700Y-1905000D03*
G01*
X101600Y-1892300D03*
G01*
X190500Y-939800D03*
G01*
X330200Y-939800D03*
G01*
X12700Y-939800D03*
G01*
X546100Y-927100D03*
G01*
X647700Y-927100D03*
G01*
X800100Y-939800D03*
G01*
X1612900Y-622300D03*
G01*
X1485900Y-2070100D03*
G01*
X1587500Y-1676400D03*
G01*
X-228600Y-1257300D03*
G01*
X1435100Y-1739900D03*
G01*
X1587500Y-2159000D03*
G01*
X1676400Y-1612900D03*
G01*
X1689100Y-1739900D03*
G01*
X1371600Y-2159000D03*
G01*
X1409700Y-508000D03*
G01*
X1587500Y-1003300D03*
G01*
X-190500Y-1562100D03*
G01*
X939800Y-1384300D03*
G01*
X1282700Y-2082800D03*
G01*
X1181100Y-2184400D03*
G01*
X-203200Y-838200D03*
G01*
X-50800Y-863600D03*
G01*
X927100Y-2171700D03*
G01*
X1587500Y-355600D03*
G01*
X-330200Y-1612900D03*
G01*
X1346200Y-1130300D03*
G01*
X1435100Y-698500D03*
G01*
X914400Y-1524000D03*
G01*
X1193800Y-1625600D03*
G01*
X1066800Y-1625600D03*
G01*
X1231900Y-1701800D03*
G01*
X1117600Y-1701800D03*
G01*
X203200Y-1968500D03*
M02*
