G04 Layer: TopPasteMaskLayer*
G04 EasyEDA v6.5.42, 2024-04-26 14:21:03*
G04 83e926d313864eea94535a794ce2a587,2865ae9118a24060a17af6d01c9bcc73,10*
G04 Gerber Generator version 0.2*
G04 Scale: 100 percent, Rotated: No, Reflected: No *
G04 Dimensions in millimeters *
G04 leading zeros omitted , absolute positions ,4 integer and 5 decimal *
%FSLAX45Y45*%
%MOMM*%

%AMMACRO1*21,1,$1,$2,0,0,$3*%
%ADD10R,0.8000X0.8000*%
%ADD11R,3.5000X1.2000*%
%ADD12R,0.8000X0.9000*%
%ADD13R,0.9000X0.8000*%
%ADD14O,0.3430016X1.7314926000000002*%
%ADD15MACRO1,2.7501X6.2001X90.0000*%

%LPD*%
G36*
X1103020Y-1234389D02*
G01*
X1097991Y-1239418D01*
X1097991Y-1319377D01*
X1103020Y-1324406D01*
X1125778Y-1324406D01*
X1125778Y-1287373D01*
X1158798Y-1287373D01*
X1158798Y-1324406D01*
X1182979Y-1324406D01*
X1188008Y-1319377D01*
X1188008Y-1239418D01*
X1182979Y-1234389D01*
G37*
G36*
X1103020Y-1394409D02*
G01*
X1097991Y-1399387D01*
X1097991Y-1478381D01*
X1103020Y-1483410D01*
X1182979Y-1483410D01*
X1188008Y-1478381D01*
X1188008Y-1399387D01*
X1182979Y-1394409D01*
X1158798Y-1394409D01*
X1158798Y-1432407D01*
X1125778Y-1432407D01*
X1125778Y-1394409D01*
G37*
G36*
X1099718Y-526491D02*
G01*
X1094689Y-531520D01*
X1094689Y-611479D01*
X1099718Y-616508D01*
X1179677Y-616508D01*
X1184706Y-611479D01*
X1184706Y-588721D01*
X1147724Y-588721D01*
X1147724Y-555701D01*
X1184706Y-555701D01*
X1184706Y-531520D01*
X1179677Y-526491D01*
G37*
G36*
X1259687Y-526491D02*
G01*
X1254709Y-531520D01*
X1254709Y-555701D01*
X1292707Y-555701D01*
X1292707Y-588721D01*
X1254709Y-588721D01*
X1254709Y-611479D01*
X1259687Y-616508D01*
X1338681Y-616508D01*
X1343710Y-611479D01*
X1343710Y-531520D01*
X1338681Y-526491D01*
G37*
G36*
X1099718Y-716991D02*
G01*
X1094689Y-722020D01*
X1094689Y-801979D01*
X1099718Y-807008D01*
X1179677Y-807008D01*
X1184706Y-801979D01*
X1184706Y-779221D01*
X1147724Y-779221D01*
X1147724Y-746201D01*
X1184706Y-746201D01*
X1184706Y-722020D01*
X1179677Y-716991D01*
G37*
G36*
X1259687Y-716991D02*
G01*
X1254709Y-722020D01*
X1254709Y-746201D01*
X1292707Y-746201D01*
X1292707Y-779221D01*
X1254709Y-779221D01*
X1254709Y-801979D01*
X1259687Y-807008D01*
X1338681Y-807008D01*
X1343710Y-801979D01*
X1343710Y-722020D01*
X1338681Y-716991D01*
G37*
G36*
X1099718Y-907491D02*
G01*
X1094689Y-912520D01*
X1094689Y-992479D01*
X1099718Y-997508D01*
X1179677Y-997508D01*
X1184706Y-992479D01*
X1184706Y-969721D01*
X1147724Y-969721D01*
X1147724Y-936701D01*
X1184706Y-936701D01*
X1184706Y-912520D01*
X1179677Y-907491D01*
G37*
G36*
X1259687Y-907491D02*
G01*
X1254709Y-912520D01*
X1254709Y-936701D01*
X1292707Y-936701D01*
X1292707Y-969721D01*
X1254709Y-969721D01*
X1254709Y-992479D01*
X1259687Y-997508D01*
X1338681Y-997508D01*
X1343710Y-992479D01*
X1343710Y-912520D01*
X1338681Y-907491D01*
G37*
G36*
X-268579Y-1101293D02*
G01*
X-273608Y-1106322D01*
X-273608Y-1186281D01*
X-268579Y-1191310D01*
X-188620Y-1191310D01*
X-183591Y-1186281D01*
X-183591Y-1106322D01*
X-188620Y-1101293D01*
X-211378Y-1101293D01*
X-211378Y-1138326D01*
X-244398Y-1138326D01*
X-244398Y-1101293D01*
G37*
G36*
X-268579Y-942289D02*
G01*
X-273608Y-947318D01*
X-273608Y-1026312D01*
X-268579Y-1031290D01*
X-244398Y-1031290D01*
X-244398Y-993292D01*
X-211378Y-993292D01*
X-211378Y-1031290D01*
X-188620Y-1031290D01*
X-183591Y-1026312D01*
X-183591Y-947318D01*
X-188620Y-942289D01*
G37*
D10*
G01*
X1333500Y-1418589D03*
G01*
X1333500Y-1248410D03*
D11*
G01*
X1028395Y-1879600D03*
G01*
X1562404Y-1879600D03*
D12*
G01*
X-235102Y-1981200D03*
G01*
X-95097Y-1981200D03*
G01*
X-235102Y-2171700D03*
G01*
X-95097Y-2171700D03*
D13*
G01*
X952500Y-1098397D03*
G01*
X952500Y-1238402D03*
D14*
G01*
X-66903Y-1683588D03*
G01*
X-1904Y-1683588D03*
G01*
X63093Y-1683588D03*
G01*
X128092Y-1683588D03*
G01*
X193090Y-1683588D03*
G01*
X258089Y-1683588D03*
G01*
X323113Y-1683588D03*
G01*
X388111Y-1683588D03*
G01*
X453110Y-1683588D03*
G01*
X518109Y-1683588D03*
G01*
X583107Y-1683588D03*
G01*
X648106Y-1683588D03*
G01*
X713104Y-1683588D03*
G01*
X778103Y-1683588D03*
G01*
X-66903Y-1110437D03*
G01*
X-1904Y-1110437D03*
G01*
X63093Y-1110437D03*
G01*
X128092Y-1110437D03*
G01*
X193090Y-1110437D03*
G01*
X258089Y-1110437D03*
G01*
X323113Y-1110437D03*
G01*
X388111Y-1110437D03*
G01*
X453110Y-1110437D03*
G01*
X518109Y-1110437D03*
G01*
X583107Y-1110437D03*
G01*
X648106Y-1110437D03*
G01*
X713104Y-1110437D03*
G01*
X778103Y-1110437D03*
D15*
G01*
X355600Y-1396987D03*
M02*
